	.include "MPlayDef.s"

	.equ	mus_pkmn_sv_vs_penny_grp, voicegroup204
	.equ	mus_pkmn_sv_vs_penny_pri, 0
	.equ	mus_pkmn_sv_vs_penny_rev, 0
	.equ	mus_pkmn_sv_vs_penny_mvl, 100
	.equ	mus_pkmn_sv_vs_penny_key, 0
	.equ	mus_pkmn_sv_vs_penny_tbs, 1
	.equ	mus_pkmn_sv_vs_penny_exg, 0
	.equ	mus_pkmn_sv_vs_penny_cmp, 1

	.section .rodata
	.global	mus_pkmn_sv_vs_penny
	.align	2

@**************** Track 1 (Midi-Chn.1) ****************@

mus_pkmn_sv_vs_penny_1:
	.byte		VOL   , 127*mus_pkmn_sv_vs_penny_mvl/mxv
	.byte	KEYSH , mus_pkmn_sv_vs_penny_key+0
@ 000   ----------------------------------------
	.byte	TEMPO , 168*mus_pkmn_sv_vs_penny_tbs/2
	.byte		VOICE , 50
	.byte	W96
@ 001   ----------------------------------------
	.byte	W96
@ 002   ----------------------------------------
	.byte	W96
@ 003   ----------------------------------------
	.byte	W96
@ 004   ----------------------------------------
	.byte	W96
@ 005   ----------------------------------------
	.byte	W96
@ 006   ----------------------------------------
	.byte	W96
@ 007   ----------------------------------------
	.byte	W84
	.byte		N06   , Gn1 , v064
	.byte		N06   , Gn2 
	.byte	W12
@ 008   ----------------------------------------
mus_pkmn_sv_vs_penny_1_008:
	.byte		N06   , Gn2 , v064
	.byte		N06   , Gn3 
	.byte	W18
	.byte		        Gn2 
	.byte		N06   , Gn3 
	.byte	W18
	.byte		        Dn3 
	.byte		N06   , Dn4 
	.byte	W18
	.byte		        Cn3 
	.byte		N06   , Cn4 
	.byte	W18
	.byte		        Dn3 
	.byte		N06   , Dn4 
	.byte	W12
	.byte		        Cn3 
	.byte		N06   , Cn4 
	.byte	W12
	.byte	PEND
@ 009   ----------------------------------------
mus_pkmn_sv_vs_penny_1_009:
	.byte		N06   , Ds3 , v064
	.byte		N06   , Ds4 
	.byte	W18
	.byte		        Ds3 
	.byte		N06   , Ds4 
	.byte	W18
	.byte		        Dn3 
	.byte		N06   , Dn4 
	.byte	W18
	.byte		        Dn3 
	.byte		N06   , Dn4 
	.byte	W18
	.byte		        Bn2 
	.byte		N06   , Bn3 
	.byte	W12
	.byte		        Gn2 
	.byte		N06   , Gn3 
	.byte	W12
	.byte	PEND
@ 010   ----------------------------------------
	.byte	PATT
	 .word	mus_pkmn_sv_vs_penny_1_008
@ 011   ----------------------------------------
	.byte		N06   , Ds3 , v064
	.byte		N06   , Ds4 
	.byte	W18
	.byte		        Ds3 
	.byte		N06   , Ds4 
	.byte	W18
	.byte		        Dn3 
	.byte		N06   , Dn4 
	.byte	W18
	.byte		        Ds3 
	.byte		N06   , Ds4 
	.byte	W18
	.byte		        Dn3 
	.byte		N06   , Dn4 
	.byte	W12
	.byte		        Bn2 
	.byte		N06   , Bn3 
	.byte	W12
@ 012   ----------------------------------------
	.byte	PATT
	 .word	mus_pkmn_sv_vs_penny_1_008
@ 013   ----------------------------------------
	.byte	PATT
	 .word	mus_pkmn_sv_vs_penny_1_009
@ 014   ----------------------------------------
	.byte	PATT
	 .word	mus_pkmn_sv_vs_penny_1_008
@ 015   ----------------------------------------
	.byte		N06   , Ds3 , v064
	.byte		N06   , Ds4 
	.byte	W18
	.byte		        Ds3 
	.byte		N06   , Ds4 
	.byte	W18
	.byte		        Dn3 
	.byte		N06   , Dn4 
	.byte	W18
	.byte		        Ds3 
	.byte		N06   , Ds4 
	.byte	W42
@ 016   ----------------------------------------
	.byte	W96
@ 017   ----------------------------------------
	.byte	W96
@ 018   ----------------------------------------
	.byte	W96
@ 019   ----------------------------------------
	.byte	W96
@ 020   ----------------------------------------
	.byte	W96
@ 021   ----------------------------------------
	.byte	W96
@ 022   ----------------------------------------
	.byte	W96
@ 023   ----------------------------------------
	.byte	W96
@ 024   ----------------------------------------
	.byte	W96
@ 025   ----------------------------------------
	.byte	W96
@ 026   ----------------------------------------
	.byte	W96
@ 027   ----------------------------------------
	.byte	W96
@ 028   ----------------------------------------
	.byte	W96
@ 029   ----------------------------------------
	.byte	W96
@ 030   ----------------------------------------
	.byte	W96
@ 031   ----------------------------------------
	.byte	W96
@ 032   ----------------------------------------
	.byte	W96
@ 033   ----------------------------------------
	.byte	W96
@ 034   ----------------------------------------
	.byte	W96
@ 035   ----------------------------------------
	.byte	W96
@ 036   ----------------------------------------
	.byte	W96
@ 037   ----------------------------------------
	.byte	W96
@ 038   ----------------------------------------
	.byte	W96
@ 039   ----------------------------------------
	.byte	W96
@ 040   ----------------------------------------
	.byte	W96
@ 041   ----------------------------------------
	.byte	W96
@ 042   ----------------------------------------
	.byte	W96
@ 043   ----------------------------------------
	.byte	W96
@ 044   ----------------------------------------
	.byte	W96
@ 045   ----------------------------------------
	.byte	W96
@ 046   ----------------------------------------
	.byte	W12
	.byte		N12   , Dn3 
	.byte	W12
	.byte		        Fs3 
	.byte	W12
	.byte		        An3 
	.byte	W12
	.byte		        Bn3 
	.byte	W12
	.byte		        Cn4 
	.byte	W12
	.byte		        Cs4 
	.byte	W12
	.byte		        Dn4 
	.byte	W12
@ 047   ----------------------------------------
	.byte	W12
	.byte		N12   
	.byte	W12
	.byte		        Fs4 
	.byte	W12
	.byte		        An4 
	.byte	W12
	.byte		        Bn4 
	.byte	W12
	.byte		        Cn5 
	.byte	W12
	.byte		        Cs5 
	.byte	W12
	.byte		        Dn5 
	.byte	W12
@ 048   ----------------------------------------
	.byte	W96
@ 049   ----------------------------------------
	.byte	W96
@ 050   ----------------------------------------
	.byte	W96
@ 051   ----------------------------------------
	.byte	W96
@ 052   ----------------------------------------
	.byte	W96
@ 053   ----------------------------------------
	.byte	W96
@ 054   ----------------------------------------
	.byte	W96
@ 055   ----------------------------------------
	.byte	W96
@ 056   ----------------------------------------
	.byte	W96
@ 057   ----------------------------------------
	.byte	W96
@ 058   ----------------------------------------
	.byte	W96
@ 059   ----------------------------------------
	.byte	W96
@ 060   ----------------------------------------
	.byte	W96
@ 061   ----------------------------------------
	.byte	W96
@ 062   ----------------------------------------
	.byte	W96
@ 063   ----------------------------------------
	.byte	W96
@ 064   ----------------------------------------
	.byte	W24
	.byte		N24   , Ds3 
	.byte		N24   , Ds4 
	.byte	W24
	.byte		        As3 
	.byte		N24   , As4 
	.byte	W24
	.byte		        Fn4 
	.byte		N24   , Fn5 
	.byte	W24
@ 065   ----------------------------------------
	.byte		        Gn4 
	.byte		N24   , Gn5 
	.byte	W24
	.byte		N12   , Dn4 
	.byte		N12   , Dn5 
	.byte	W12
	.byte		        Fn4 
	.byte		N12   , Fn5 
	.byte	W24
	.byte		N24   , Dn4 
	.byte		N24   , Dn5 
	.byte	W12
	.byte		N12   , As3 
	.byte	W12
	.byte		        An3 
	.byte	W12
@ 066   ----------------------------------------
	.byte		        Gn3 
	.byte	W24
	.byte		N24   , Ds3 
	.byte		N24   , Ds4 
	.byte	W24
	.byte		        As3 
	.byte		N24   , As4 
	.byte	W24
	.byte		        Fn4 
	.byte		N24   , Fn5 
	.byte	W24
@ 067   ----------------------------------------
	.byte		        Gn4 
	.byte		N24   , Gn5 
	.byte	W24
	.byte		N12   , Dn4 
	.byte		N12   , Dn5 
	.byte	W12
	.byte		        Fn4 
	.byte		N12   , Fn5 
	.byte	W24
	.byte		N24   , Gn4 
	.byte		N24   , Gn5 
	.byte	W12
	.byte		N12   , Gn3 
	.byte	W12
	.byte		        An3 
	.byte	W12
@ 068   ----------------------------------------
	.byte		        As3 
	.byte	W24
	.byte		N24   , Ds3 
	.byte		N24   , Ds4 
	.byte	W24
	.byte		        As3 
	.byte		N24   , As4 
	.byte	W24
	.byte		        Fn4 
	.byte		N24   , Fn5 
	.byte	W24
@ 069   ----------------------------------------
	.byte		        Gn4 
	.byte		N24   , Gn5 
	.byte	W24
	.byte		N12   , Dn4 
	.byte		N12   , Dn5 
	.byte	W12
	.byte		        Fn4 
	.byte		N12   , Fn5 
	.byte	W24
	.byte		N24   , Dn4 
	.byte		N24   , Dn5 
	.byte	W24
	.byte		N12   , Cs4 
	.byte		N12   , Cs5 
	.byte	W12
@ 070   ----------------------------------------
	.byte		N36   , Cs4 
	.byte		N36   , Cs5 
	.byte	W48
	.byte		N30   , Ds4 
	.byte		N30   , Ds5 
	.byte	W48
@ 071   ----------------------------------------
	.byte		        Fs4 
	.byte		N30   , Fs5 
	.byte	W48
	.byte		        Gs4 
	.byte		N30   , Gs5 
	.byte	W48
@ 072   ----------------------------------------
	.byte	W96
@ 073   ----------------------------------------
	.byte	W96
@ 074   ----------------------------------------
	.byte	W96
@ 075   ----------------------------------------
	.byte	W96
@ 076   ----------------------------------------
	.byte	W96
@ 077   ----------------------------------------
	.byte	W96
@ 078   ----------------------------------------
	.byte	W96
@ 079   ----------------------------------------
	.byte	W96
@ 080   ----------------------------------------
	.byte	W96
@ 081   ----------------------------------------
	.byte	W60
	.byte		N12   , Cn4 
	.byte	W12
	.byte		        An4 
	.byte	W12
	.byte		N24   , Gn4 
	.byte	W12
@ 082   ----------------------------------------
	.byte	W12
	.byte		N12   , Ds4 
	.byte	W12
	.byte		TIE   , Fn4 
	.byte	W72
@ 083   ----------------------------------------
	.byte	W96
@ 084   ----------------------------------------
	.byte	W12
	.byte		EOT   
	.byte	W84
@ 085   ----------------------------------------
	.byte	W60
	.byte		N12   , Dn4 
	.byte	W12
	.byte		        An4 
	.byte	W12
	.byte		N24   , Gs4 
	.byte	W12
@ 086   ----------------------------------------
	.byte	W12
	.byte		N12   , An4 
	.byte	W12
	.byte		TIE   , Bn4 
	.byte	W72
@ 087   ----------------------------------------
	.byte	W96
@ 088   ----------------------------------------
	.byte	W24
	.byte		EOT   
	.byte	FINE

@**************** Track 2 (Midi-Chn.2) ****************@

mus_pkmn_sv_vs_penny_2:
	.byte		VOL   , 127*mus_pkmn_sv_vs_penny_mvl/mxv
	.byte	KEYSH , mus_pkmn_sv_vs_penny_key+0
@ 000   ----------------------------------------
	.byte		VOICE , 73 @ 60 @ French Horn
	.byte	W12
	.byte		N12   , Ds4 , v064
	.byte	W24
	.byte		        Fn4 
	.byte	W24
	.byte		        Dn4 
	.byte	W24
	.byte		N12   
	.byte	W12
@ 001   ----------------------------------------
	.byte	W84
	.byte		        Fn4 
	.byte	W12
@ 002   ----------------------------------------
	.byte		        Gn4 
	.byte	W12
	.byte		        Fn4 
	.byte	W12
	.byte		        Gn4 
	.byte	W12
	.byte		N12   
	.byte	W24
	.byte		        Dn4 
	.byte	W24
	.byte		N12   
	.byte	W12
@ 003   ----------------------------------------
	.byte	W84
	.byte		        Ds4 
	.byte	W12
@ 004   ----------------------------------------
	.byte	W12
	.byte		N12   
	.byte	W24
	.byte		        Fn4 
	.byte	W24
	.byte		        Dn4 
	.byte	W24
	.byte		N12   
	.byte	W12
@ 005   ----------------------------------------
	.byte	W84
	.byte		        Gn4 
	.byte	W12
@ 006   ----------------------------------------
	.byte		        Fn4 
	.byte	W12
	.byte		        Gn4 
	.byte	W12
	.byte		        Gs4 
	.byte	W12
	.byte		        Gn4 
	.byte	W24
	.byte		        Dn4 
	.byte	W24
	.byte		N12   
	.byte	W12
@ 007   ----------------------------------------
	.byte	W96
@ 008   ----------------------------------------
	.byte	W96
@ 009   ----------------------------------------
	.byte	W96
@ 010   ----------------------------------------
	.byte	W96
@ 011   ----------------------------------------
	.byte	W96
@ 012   ----------------------------------------
	.byte	W96
@ 013   ----------------------------------------
	.byte	W96
@ 014   ----------------------------------------
	.byte	W96
@ 015   ----------------------------------------
	.byte	W96
@ 016   ----------------------------------------
mus_pkmn_sv_vs_penny_2_016:
	.byte		TIE   , As3 , v064
	.byte		TIE   , As4 
	.byte	W96
	.byte	PEND
@ 017   ----------------------------------------
	.byte	W12
	.byte		EOT   , As3 
	.byte		        As4 
	.byte	W24
	.byte		N12   , Fn3 
	.byte		N12   , Fn4 
	.byte	W12
	.byte		        Gn3 
	.byte		N12   , Gn4 
	.byte	W12
	.byte		        Dn4 
	.byte		N12   , Dn5 
	.byte	W24
	.byte		        Cn4 
	.byte		N12   , Cn5 
	.byte	W12
@ 018   ----------------------------------------
mus_pkmn_sv_vs_penny_2_018:
	.byte	W12
	.byte		N12   , Gn3 , v064
	.byte		N12   , Gn4 
	.byte	W12
	.byte		N90   , As3 
	.byte		N90   , As4 
	.byte	W72
	.byte	PEND
@ 019   ----------------------------------------
mus_pkmn_sv_vs_penny_2_019:
	.byte	W36
	.byte		N12   , Gn3 , v064
	.byte		N12   , Gn4 
	.byte	W12
	.byte		        Cn4 
	.byte		N12   , Cn5 
	.byte	W12
	.byte		        Ds4 
	.byte		N12   , Ds5 
	.byte	W24
	.byte		        Dn4 
	.byte		N12   , Dn5 
	.byte	W12
	.byte	PEND
@ 020   ----------------------------------------
mus_pkmn_sv_vs_penny_2_020:
	.byte	W12
	.byte		N12   , Cn4 , v064
	.byte		N12   , Cn5 
	.byte	W12
	.byte		N84   , As3 
	.byte		N84   , As4 
	.byte	W72
	.byte	PEND
@ 021   ----------------------------------------
mus_pkmn_sv_vs_penny_2_021:
	.byte	W36
	.byte		N12   , As3 , v064
	.byte		N12   , As4 
	.byte	W12
	.byte		N24   , An3 
	.byte		N24   , An4 
	.byte	W24
	.byte		        As3 
	.byte		N24   , As4 
	.byte	W24
	.byte	PEND
@ 022   ----------------------------------------
mus_pkmn_sv_vs_penny_2_022:
	.byte		N72   , Cn4 , v064
	.byte		N72   , Cn5 
	.byte	W72
	.byte		N12   , As3 
	.byte		N12   , As4 
	.byte	W12
	.byte		N84   , An3 
	.byte		N84   , An4 
	.byte	W12
	.byte	PEND
@ 023   ----------------------------------------
	.byte	W96
@ 024   ----------------------------------------
	.byte	PATT
	 .word	mus_pkmn_sv_vs_penny_2_016
@ 025   ----------------------------------------
	.byte	W12
	.byte		EOT   , As3 
	.byte		        As4 
	.byte	W24
	.byte		N12   , Fn3 , v064
	.byte		N12   , Fn4 
	.byte	W12
	.byte		        Gn3 
	.byte		N12   , Gn4 
	.byte	W12
	.byte		        Dn4 
	.byte		N12   , Dn5 
	.byte	W24
	.byte		        Cn4 
	.byte		N12   , Cn5 
	.byte	W12
@ 026   ----------------------------------------
	.byte	PATT
	 .word	mus_pkmn_sv_vs_penny_2_018
@ 027   ----------------------------------------
mus_pkmn_sv_vs_penny_2_027:
	.byte	W36
	.byte		N12   , Gn3 , v064
	.byte		N12   , Gn4 
	.byte	W12
	.byte		N24   , As3 
	.byte		N24   , As4 
	.byte	W24
	.byte		        Cn4 
	.byte		N24   , Cn5 
	.byte	W24
	.byte	PEND
@ 028   ----------------------------------------
mus_pkmn_sv_vs_penny_2_028:
	.byte		N36   , Dn4 , v064
	.byte		N36   , Dn5 
	.byte	W48
	.byte		N12   , Ds4 
	.byte		N12   , Ds5 
	.byte	W12
	.byte		N24   , Dn4 
	.byte		N24   , Dn5 
	.byte	W24
	.byte		N36   , Cn4 
	.byte		N36   , Cn5 
	.byte	W12
	.byte	PEND
@ 029   ----------------------------------------
	.byte	W36
	.byte		N12   , As3 
	.byte		N12   , As4 
	.byte	W12
	.byte		N24   , An3 
	.byte		N24   , An4 
	.byte	W24
	.byte		N12   , Fs3 
	.byte		N12   , Fs4 
	.byte	W12
	.byte		TIE   , Gn3 
	.byte		TIE   , Gn4 
	.byte	W12
@ 030   ----------------------------------------
	.byte	W96
	.byte		EOT   , Gn3 
	.byte		        Gn4 
@ 031   ----------------------------------------
	.byte	W96
@ 032   ----------------------------------------
	.byte	W96
@ 033   ----------------------------------------
	.byte	W96
@ 034   ----------------------------------------
	.byte	W96
@ 035   ----------------------------------------
	.byte	W96
@ 036   ----------------------------------------
	.byte	W96
@ 037   ----------------------------------------
	.byte	W96
@ 038   ----------------------------------------
	.byte	W96
@ 039   ----------------------------------------
	.byte	W96
@ 040   ----------------------------------------
	.byte	W96
@ 041   ----------------------------------------
	.byte	W96
@ 042   ----------------------------------------
	.byte	W96
@ 043   ----------------------------------------
	.byte	W96
@ 044   ----------------------------------------
	.byte	W96
@ 045   ----------------------------------------
	.byte	W96
@ 046   ----------------------------------------
	.byte	W96
@ 047   ----------------------------------------
	.byte	W96
@ 048   ----------------------------------------
	.byte	PATT
	 .word	mus_pkmn_sv_vs_penny_2_016
@ 049   ----------------------------------------
	.byte	W12
	.byte		EOT   , As3 
	.byte		        As4 
	.byte	W24
	.byte		N12   , Fn3 , v064
	.byte		N12   , Fn4 
	.byte	W12
	.byte		        Gn3 
	.byte		N12   , Gn4 
	.byte	W12
	.byte		        Dn4 
	.byte		N12   , Dn5 
	.byte	W24
	.byte		        Cn4 
	.byte		N12   , Cn5 
	.byte	W12
@ 050   ----------------------------------------
	.byte	PATT
	 .word	mus_pkmn_sv_vs_penny_2_018
@ 051   ----------------------------------------
	.byte	PATT
	 .word	mus_pkmn_sv_vs_penny_2_019
@ 052   ----------------------------------------
	.byte	PATT
	 .word	mus_pkmn_sv_vs_penny_2_020
@ 053   ----------------------------------------
	.byte	PATT
	 .word	mus_pkmn_sv_vs_penny_2_021
@ 054   ----------------------------------------
	.byte	PATT
	 .word	mus_pkmn_sv_vs_penny_2_022
@ 055   ----------------------------------------
	.byte	W96
@ 056   ----------------------------------------
	.byte	PATT
	 .word	mus_pkmn_sv_vs_penny_2_016
@ 057   ----------------------------------------
	.byte	W12
	.byte		EOT   , As3 
	.byte		        As4 
	.byte	W24
	.byte		N12   , Fn3 , v064
	.byte		N12   , Fn4 
	.byte	W12
	.byte		        Gn3 
	.byte		N12   , Gn4 
	.byte	W12
	.byte		        Dn4 
	.byte		N12   , Dn5 
	.byte	W24
	.byte		        Cn4 
	.byte		N12   , Cn5 
	.byte	W12
@ 058   ----------------------------------------
	.byte	PATT
	 .word	mus_pkmn_sv_vs_penny_2_018
@ 059   ----------------------------------------
	.byte	PATT
	 .word	mus_pkmn_sv_vs_penny_2_027
@ 060   ----------------------------------------
	.byte	PATT
	 .word	mus_pkmn_sv_vs_penny_2_028
@ 061   ----------------------------------------
	.byte	W36
	.byte		N12   , As3 , v064
	.byte		N12   , As4 
	.byte	W12
	.byte		N24   , An3 
	.byte		N24   , An4 
	.byte	W24
	.byte		N12   , Fs3 
	.byte		N12   , Fs4 
	.byte	W12
	.byte		N36   , Gn3 
	.byte		N36   , Gn4 
	.byte	W12
@ 062   ----------------------------------------
	.byte	W96
@ 063   ----------------------------------------
	.byte	W96
@ 064   ----------------------------------------
	.byte	W96
@ 065   ----------------------------------------
	.byte	W96
@ 066   ----------------------------------------
	.byte	W96
@ 067   ----------------------------------------
	.byte	W96
@ 068   ----------------------------------------
	.byte	W96
@ 069   ----------------------------------------
	.byte	W96
@ 070   ----------------------------------------
	.byte	W96
@ 071   ----------------------------------------
	.byte	W96
@ 072   ----------------------------------------
mus_pkmn_sv_vs_penny_2_072:
	.byte		N12   , Cn4 , v064
	.byte	W24
	.byte		N12   
	.byte	W24
	.byte		N18   , Dn4 
	.byte	W18
	.byte		N12   
	.byte	W18
	.byte		        Cn4 
	.byte	W12
	.byte	PEND
@ 073   ----------------------------------------
mus_pkmn_sv_vs_penny_2_073:
	.byte	W12
	.byte		N12   , Cn4 , v064
	.byte	W24
	.byte		        Dn4 
	.byte	W12
	.byte		N42   
	.byte	W48
	.byte	PEND
@ 074   ----------------------------------------
	.byte	PATT
	 .word	mus_pkmn_sv_vs_penny_2_072
@ 075   ----------------------------------------
	.byte	PATT
	 .word	mus_pkmn_sv_vs_penny_2_073
@ 076   ----------------------------------------
	.byte	PATT
	 .word	mus_pkmn_sv_vs_penny_2_072
@ 077   ----------------------------------------
	.byte	PATT
	 .word	mus_pkmn_sv_vs_penny_2_073
@ 078   ----------------------------------------
	.byte	PATT
	 .word	mus_pkmn_sv_vs_penny_2_072
@ 079   ----------------------------------------
	.byte	PATT
	 .word	mus_pkmn_sv_vs_penny_2_073
@ 080   ----------------------------------------
	.byte	PATT
	 .word	mus_pkmn_sv_vs_penny_2_072
@ 081   ----------------------------------------
	.byte	PATT
	 .word	mus_pkmn_sv_vs_penny_2_073
@ 082   ----------------------------------------
	.byte	PATT
	 .word	mus_pkmn_sv_vs_penny_2_072
@ 083   ----------------------------------------
	.byte	PATT
	 .word	mus_pkmn_sv_vs_penny_2_073
@ 084   ----------------------------------------
	.byte	PATT
	 .word	mus_pkmn_sv_vs_penny_2_072
@ 085   ----------------------------------------
	.byte	PATT
	 .word	mus_pkmn_sv_vs_penny_2_073
@ 086   ----------------------------------------
	.byte	PATT
	 .word	mus_pkmn_sv_vs_penny_2_072
@ 087   ----------------------------------------
	.byte	PATT
	 .word	mus_pkmn_sv_vs_penny_2_073
@ 088   ----------------------------------------
mus_pkmn_sv_vs_penny_2_088:
	.byte		N24   , Cn4 , v064
	.byte	W36
	.byte		        Dn4 
	.byte	W36
	.byte		        Ds4 
	.byte	W24
	.byte	PEND
@ 089   ----------------------------------------
mus_pkmn_sv_vs_penny_2_089:
	.byte	W12
	.byte		N24   , Fn4 , v064
	.byte	W36
	.byte		N18   , Gn4 
	.byte	W24
	.byte		        Gs4 
	.byte	W24
	.byte	PEND
@ 090   ----------------------------------------
	.byte		N24   , Gn4 
	.byte	W24
	.byte		N12   , Ds4 
	.byte	W12
	.byte		TIE   , Fn4 
	.byte	W60
@ 091   ----------------------------------------
	.byte	W72
	.byte		EOT   
	.byte	W24
@ 092   ----------------------------------------
	.byte		N24   , Cs4 
	.byte	W36
	.byte		        Ds4 
	.byte	W36
	.byte		        Fn4 
	.byte	W24
@ 093   ----------------------------------------
	.byte	W12
	.byte		        Fs4 
	.byte	W36
	.byte		N18   , Gs4 
	.byte	W24
	.byte		        As4 
	.byte	W24
@ 094   ----------------------------------------
	.byte		N24   , Gs4 
	.byte	W24
	.byte		N12   , Fn4 
	.byte	W12
	.byte		TIE   , As4 
	.byte	W60
@ 095   ----------------------------------------
	.byte	W72
	.byte		EOT   
	.byte	W24
@ 096   ----------------------------------------
	.byte	PATT
	 .word	mus_pkmn_sv_vs_penny_2_088
@ 097   ----------------------------------------
	.byte	PATT
	 .word	mus_pkmn_sv_vs_penny_2_089
@ 098   ----------------------------------------
	.byte		N12   , Fn4 , v064
	.byte	W12
	.byte		        Ds4 
	.byte	W12
	.byte		        Fn4 
	.byte	W12
	.byte		        Gn4 
	.byte	W12
	.byte		        Fn4 
	.byte	W12
	.byte		        Gn4 
	.byte	W12
	.byte		N72   , Gs4 
	.byte	W24
@ 099   ----------------------------------------
	.byte	W60
	.byte		N12   , Ds4 
	.byte	W12
	.byte		        Fn4 
	.byte	W12
	.byte		N24   , Fs4 
	.byte	W12
@ 100   ----------------------------------------
	.byte	W12
	.byte		N12   , Fn4 
	.byte	W12
	.byte		N42   , Ds4 
	.byte	W60
	.byte		N12   
	.byte	W12
@ 101   ----------------------------------------
	.byte		N48   , Fs4 
	.byte	W48
	.byte		        As4 
	.byte	W48
@ 102   ----------------------------------------
	.byte		TIE   , Cn5 
	.byte	W96
@ 103   ----------------------------------------
	.byte	W96
	.byte		EOT   
@ 104   ----------------------------------------
	.byte	FINE

@**************** Track 3 (Midi-Chn.3) ****************@

mus_pkmn_sv_vs_penny_3:
	.byte	KEYSH , mus_pkmn_sv_vs_penny_key+0
@ 000   ----------------------------------------
	.byte		VOICE , 56 @ Trumpet
	.byte		VOL   , 90*mus_pkmn_sv_vs_penny_mvl/mxv
	.byte	W12
	.byte		N12   , Ds5 , v064
	.byte	W24
	.byte		        Fn5 
	.byte	W24
	.byte		        Dn5 
	.byte	W24
	.byte		N12   
	.byte	W12
@ 001   ----------------------------------------
	.byte	W84
	.byte		        Fn5 
	.byte	W12
@ 002   ----------------------------------------
	.byte		        Gn5 
	.byte	W12
	.byte		        Fn5 
	.byte	W12
	.byte		        Gn5 
	.byte	W12
	.byte		N12   
	.byte	W24
	.byte		        Dn5 
	.byte	W24
	.byte		N12   
	.byte	W12
@ 003   ----------------------------------------
	.byte	W84
	.byte		        Ds5 
	.byte	W12
@ 004   ----------------------------------------
	.byte	W12
	.byte		N12   
	.byte	W24
	.byte		        Fn5 
	.byte	W24
	.byte		        Dn5 
	.byte	W24
	.byte		N12   
	.byte	W12
@ 005   ----------------------------------------
	.byte	W84
	.byte		        Gn5 
	.byte	W12
@ 006   ----------------------------------------
	.byte		        Fn5 
	.byte	W12
	.byte		        Gn5 
	.byte	W12
	.byte		        Gs5 
	.byte	W12
	.byte		        Gn5 
	.byte	W24
	.byte		        Dn5 
	.byte	W24
	.byte		N12   
	.byte	W12
@ 007   ----------------------------------------
	.byte	W96
@ 008   ----------------------------------------
	.byte	W96
@ 009   ----------------------------------------
	.byte	W96
@ 010   ----------------------------------------
	.byte	W96
@ 011   ----------------------------------------
	.byte	W96
@ 012   ----------------------------------------
	.byte	W96
@ 013   ----------------------------------------
	.byte	W96
@ 014   ----------------------------------------
	.byte	W96
@ 015   ----------------------------------------
	.byte	W96
@ 016   ----------------------------------------
	.byte	W96
@ 017   ----------------------------------------
	.byte	W96
@ 018   ----------------------------------------
	.byte	W96
@ 019   ----------------------------------------
	.byte	W96
@ 020   ----------------------------------------
	.byte	W96
@ 021   ----------------------------------------
	.byte	W96
@ 022   ----------------------------------------
	.byte	W96
@ 023   ----------------------------------------
	.byte	W96
@ 024   ----------------------------------------
	.byte	W96
@ 025   ----------------------------------------
	.byte	W96
@ 026   ----------------------------------------
	.byte	W96
@ 027   ----------------------------------------
	.byte	W96
@ 028   ----------------------------------------
	.byte	W96
@ 029   ----------------------------------------
	.byte	W96
@ 030   ----------------------------------------
	.byte	W96
@ 031   ----------------------------------------
	.byte	W96
@ 032   ----------------------------------------
	.byte	W96
@ 033   ----------------------------------------
	.byte	W96
@ 034   ----------------------------------------
	.byte	W96
@ 035   ----------------------------------------
	.byte	W96
@ 036   ----------------------------------------
	.byte	W96
@ 037   ----------------------------------------
	.byte	W96
@ 038   ----------------------------------------
	.byte	W96
@ 039   ----------------------------------------
	.byte	W96
@ 040   ----------------------------------------
	.byte	W96
@ 041   ----------------------------------------
	.byte	W96
@ 042   ----------------------------------------
	.byte	W96
@ 043   ----------------------------------------
	.byte	W96
@ 044   ----------------------------------------
	.byte	W96
@ 045   ----------------------------------------
	.byte	W96
@ 046   ----------------------------------------
	.byte	W96
@ 047   ----------------------------------------
	.byte	W96
@ 048   ----------------------------------------
	.byte	W96
@ 049   ----------------------------------------
	.byte	W96
@ 050   ----------------------------------------
	.byte	W96
@ 051   ----------------------------------------
	.byte	W96
@ 052   ----------------------------------------
	.byte	W96
@ 053   ----------------------------------------
	.byte	W96
@ 054   ----------------------------------------
	.byte	W96
@ 055   ----------------------------------------
	.byte	W96
@ 056   ----------------------------------------
	.byte	W96
@ 057   ----------------------------------------
	.byte	W96
@ 058   ----------------------------------------
	.byte	W96
@ 059   ----------------------------------------
	.byte	W96
@ 060   ----------------------------------------
	.byte	W96
@ 061   ----------------------------------------
	.byte	W96
@ 062   ----------------------------------------
	.byte	W96
@ 063   ----------------------------------------
	.byte	W96
@ 064   ----------------------------------------
	.byte	W96
@ 065   ----------------------------------------
	.byte	W96
@ 066   ----------------------------------------
	.byte	W96
@ 067   ----------------------------------------
	.byte	W96
@ 068   ----------------------------------------
	.byte	W96
@ 069   ----------------------------------------
	.byte	W96
@ 070   ----------------------------------------
	.byte	W96
@ 071   ----------------------------------------
	.byte	W96
@ 072   ----------------------------------------
mus_pkmn_sv_vs_penny_3_072:
	.byte		N12   , Fn3 , v064
	.byte	W24
	.byte		N12   
	.byte	W24
	.byte		N18   , Gn3 
	.byte	W18
	.byte		N12   
	.byte	W18
	.byte		        Fn3 
	.byte	W12
	.byte	PEND
@ 073   ----------------------------------------
mus_pkmn_sv_vs_penny_3_073:
	.byte	W12
	.byte		N12   , Fn3 , v064
	.byte	W24
	.byte		        Gn3 
	.byte	W12
	.byte		N42   
	.byte	W48
	.byte	PEND
@ 074   ----------------------------------------
	.byte	PATT
	 .word	mus_pkmn_sv_vs_penny_3_072
@ 075   ----------------------------------------
	.byte	PATT
	 .word	mus_pkmn_sv_vs_penny_3_073
@ 076   ----------------------------------------
	.byte	PATT
	 .word	mus_pkmn_sv_vs_penny_3_072
@ 077   ----------------------------------------
	.byte	PATT
	 .word	mus_pkmn_sv_vs_penny_3_073
@ 078   ----------------------------------------
	.byte	PATT
	 .word	mus_pkmn_sv_vs_penny_3_072
@ 079   ----------------------------------------
	.byte	PATT
	 .word	mus_pkmn_sv_vs_penny_3_073
@ 080   ----------------------------------------
	.byte	PATT
	 .word	mus_pkmn_sv_vs_penny_3_072
@ 081   ----------------------------------------
	.byte	PATT
	 .word	mus_pkmn_sv_vs_penny_3_073
@ 082   ----------------------------------------
	.byte	PATT
	 .word	mus_pkmn_sv_vs_penny_3_072
@ 083   ----------------------------------------
	.byte	PATT
	 .word	mus_pkmn_sv_vs_penny_3_073
@ 084   ----------------------------------------
	.byte	PATT
	 .word	mus_pkmn_sv_vs_penny_3_072
@ 085   ----------------------------------------
	.byte	PATT
	 .word	mus_pkmn_sv_vs_penny_3_073
@ 086   ----------------------------------------
	.byte	PATT
	 .word	mus_pkmn_sv_vs_penny_3_072
@ 087   ----------------------------------------
	.byte	PATT
	 .word	mus_pkmn_sv_vs_penny_3_073
@ 088   ----------------------------------------
mus_pkmn_sv_vs_penny_3_088:
	.byte		N18   , Cn4 , v064
	.byte	W84
	.byte		N12   
	.byte	W12
	.byte	PEND
@ 089   ----------------------------------------
mus_pkmn_sv_vs_penny_3_089:
	.byte	W12
	.byte		N18   , Cn4 , v064
	.byte	W48
	.byte		N12   
	.byte	W12
	.byte		N12   
	.byte	W24
	.byte	PEND
@ 090   ----------------------------------------
mus_pkmn_sv_vs_penny_3_090:
	.byte		N18   , Dn4 , v064
	.byte	W84
	.byte		N12   
	.byte	W12
	.byte	PEND
@ 091   ----------------------------------------
mus_pkmn_sv_vs_penny_3_091:
	.byte	W12
	.byte		N18   , Dn4 , v064
	.byte	W48
	.byte		N12   
	.byte	W12
	.byte		N12   
	.byte	W24
	.byte	PEND
@ 092   ----------------------------------------
	.byte		N18   , Cs4 
	.byte	W84
	.byte		N12   
	.byte	W12
@ 093   ----------------------------------------
	.byte	W12
	.byte		N18   
	.byte	W48
	.byte		N12   
	.byte	W12
	.byte		N12   
	.byte	W24
@ 094   ----------------------------------------
	.byte	PATT
	 .word	mus_pkmn_sv_vs_penny_3_090
@ 095   ----------------------------------------
	.byte	PATT
	 .word	mus_pkmn_sv_vs_penny_3_091
@ 096   ----------------------------------------
	.byte	PATT
	 .word	mus_pkmn_sv_vs_penny_3_088
@ 097   ----------------------------------------
	.byte	PATT
	 .word	mus_pkmn_sv_vs_penny_3_089
@ 098   ----------------------------------------
	.byte		N12   , Dn5 , v064
	.byte	W36
	.byte		        Fn5 
	.byte	W36
	.byte		N84   , Gs5 
	.byte	W24
@ 099   ----------------------------------------
	.byte	W96
@ 100   ----------------------------------------
	.byte		N18   , As3 
	.byte	W84
	.byte		N12   
	.byte	W12
@ 101   ----------------------------------------
	.byte	W12
	.byte		N18   
	.byte	W48
	.byte		N12   
	.byte	W12
	.byte		N12   
	.byte	W24
@ 102   ----------------------------------------
	.byte		TIE   , Cn4 
	.byte	W96
@ 103   ----------------------------------------
	.byte	W96
	.byte		EOT   
@ 104   ----------------------------------------
	.byte	FINE

@**************** Track 4 (Midi-Chn.4) ****************@

mus_pkmn_sv_vs_penny_4:
	.byte	KEYSH , mus_pkmn_sv_vs_penny_key+0
@ 000   ----------------------------------------
	.byte		VOICE , 60 @ French Horn
	.byte		VOL   , 90*mus_pkmn_sv_vs_penny_mvl/mxv
	.byte	W96
@ 001   ----------------------------------------
	.byte	W96
@ 002   ----------------------------------------
	.byte	W96
@ 003   ----------------------------------------
	.byte	W96
@ 004   ----------------------------------------
	.byte	W96
@ 005   ----------------------------------------
	.byte	W96
@ 006   ----------------------------------------
	.byte	W96
@ 007   ----------------------------------------
	.byte	W96
@ 008   ----------------------------------------
	.byte	W96
@ 009   ----------------------------------------
	.byte	W96
@ 010   ----------------------------------------
	.byte	W96
@ 011   ----------------------------------------
	.byte	W96
@ 012   ----------------------------------------
	.byte	W96
@ 013   ----------------------------------------
	.byte	W96
@ 014   ----------------------------------------
	.byte	W96
@ 015   ----------------------------------------
	.byte	W96
@ 016   ----------------------------------------
	.byte	W96
@ 017   ----------------------------------------
	.byte	W96
@ 018   ----------------------------------------
	.byte	W96
@ 019   ----------------------------------------
	.byte	W96
@ 020   ----------------------------------------
	.byte	W96
@ 021   ----------------------------------------
	.byte	W96
@ 022   ----------------------------------------
	.byte	W96
@ 023   ----------------------------------------
	.byte	W96
@ 024   ----------------------------------------
	.byte	W96
@ 025   ----------------------------------------
	.byte	W96
@ 026   ----------------------------------------
	.byte	W96
@ 027   ----------------------------------------
	.byte	W96
@ 028   ----------------------------------------
	.byte	W96
@ 029   ----------------------------------------
	.byte	W96
@ 030   ----------------------------------------
	.byte	W96
@ 031   ----------------------------------------
	.byte	W96
@ 032   ----------------------------------------
	.byte	W96
@ 033   ----------------------------------------
	.byte	W96
@ 034   ----------------------------------------
	.byte	W96
@ 035   ----------------------------------------
	.byte	W96
@ 036   ----------------------------------------
	.byte	W96
@ 037   ----------------------------------------
	.byte	W96
@ 038   ----------------------------------------
	.byte	W96
@ 039   ----------------------------------------
	.byte	W96
@ 040   ----------------------------------------
	.byte	W96
@ 041   ----------------------------------------
	.byte	W96
@ 042   ----------------------------------------
	.byte	W96
@ 043   ----------------------------------------
	.byte	W96
@ 044   ----------------------------------------
	.byte	W96
@ 045   ----------------------------------------
	.byte	W96
@ 046   ----------------------------------------
	.byte	W96
@ 047   ----------------------------------------
	.byte	W96
@ 048   ----------------------------------------
	.byte	W96
@ 049   ----------------------------------------
	.byte	W96
@ 050   ----------------------------------------
	.byte	W96
@ 051   ----------------------------------------
	.byte	W96
@ 052   ----------------------------------------
	.byte	W96
@ 053   ----------------------------------------
	.byte	W96
@ 054   ----------------------------------------
	.byte	W96
@ 055   ----------------------------------------
	.byte	W96
@ 056   ----------------------------------------
	.byte	W96
@ 057   ----------------------------------------
	.byte	W96
@ 058   ----------------------------------------
	.byte	W96
@ 059   ----------------------------------------
	.byte	W96
@ 060   ----------------------------------------
	.byte	W96
@ 061   ----------------------------------------
	.byte	W96
@ 062   ----------------------------------------
	.byte		N06   , Gn4 , v064
	.byte	W18
	.byte		N06   
	.byte	W18
	.byte		N06   
	.byte	W18
	.byte		N06   
	.byte	W18
	.byte		N06   
	.byte	W18
	.byte		N06   
	.byte	W06
@ 063   ----------------------------------------
	.byte		N06   
	.byte	W06
	.byte		N06   
	.byte	W06
	.byte		N06   
	.byte	W06
	.byte		N06   
	.byte	W06
	.byte		N06   
	.byte	W06
	.byte		N06   
	.byte	W06
	.byte		N06   
	.byte	W06
	.byte		N06   
	.byte	W06
	.byte		N06   
	.byte	W06
	.byte		N06   
	.byte	W06
	.byte		N06   
	.byte	W06
	.byte		N06   
	.byte	W06
	.byte		N06   
	.byte	W06
	.byte		N06   
	.byte	W06
	.byte		N06   
	.byte	W06
	.byte		N06   
	.byte	W06
@ 064   ----------------------------------------
	.byte	W96
@ 065   ----------------------------------------
	.byte	W96
@ 066   ----------------------------------------
	.byte	W96
@ 067   ----------------------------------------
	.byte	W96
@ 068   ----------------------------------------
	.byte	W96
@ 069   ----------------------------------------
	.byte	W96
@ 070   ----------------------------------------
	.byte	W96
@ 071   ----------------------------------------
	.byte	W96
@ 072   ----------------------------------------
	.byte	W96
@ 073   ----------------------------------------
	.byte	W96
@ 074   ----------------------------------------
	.byte	W96
@ 075   ----------------------------------------
	.byte	W96
@ 076   ----------------------------------------
	.byte	W96
@ 077   ----------------------------------------
	.byte	W96
@ 078   ----------------------------------------
	.byte	W96
@ 079   ----------------------------------------
	.byte	W96
@ 080   ----------------------------------------
	.byte	W96
@ 081   ----------------------------------------
	.byte	W96
@ 082   ----------------------------------------
	.byte	W96
@ 083   ----------------------------------------
	.byte	W96
@ 084   ----------------------------------------
	.byte	W96
@ 085   ----------------------------------------
	.byte	W96
@ 086   ----------------------------------------
	.byte	W96
@ 087   ----------------------------------------
	.byte	W96
@ 088   ----------------------------------------
mus_pkmn_sv_vs_penny_4_088:
	.byte		N18   , Cn4 , v064
	.byte	W84
	.byte		N12   
	.byte	W12
	.byte	PEND
@ 089   ----------------------------------------
mus_pkmn_sv_vs_penny_4_089:
	.byte	W12
	.byte		N18   , Cn4 , v064
	.byte	W48
	.byte		N12   
	.byte	W12
	.byte		N12   
	.byte	W24
	.byte	PEND
@ 090   ----------------------------------------
mus_pkmn_sv_vs_penny_4_090:
	.byte		N18   , Dn4 , v064
	.byte	W84
	.byte		N12   
	.byte	W12
	.byte	PEND
@ 091   ----------------------------------------
mus_pkmn_sv_vs_penny_4_091:
	.byte	W12
	.byte		N18   , Dn4 , v064
	.byte	W48
	.byte		N12   
	.byte	W12
	.byte		N12   
	.byte	W24
	.byte	PEND
@ 092   ----------------------------------------
	.byte		N18   , Cs4 
	.byte	W84
	.byte		N12   
	.byte	W12
@ 093   ----------------------------------------
	.byte	W12
	.byte		N18   
	.byte	W48
	.byte		N12   
	.byte	W12
	.byte		N12   
	.byte	W24
@ 094   ----------------------------------------
	.byte	PATT
	 .word	mus_pkmn_sv_vs_penny_4_090
@ 095   ----------------------------------------
	.byte	PATT
	 .word	mus_pkmn_sv_vs_penny_4_091
@ 096   ----------------------------------------
	.byte	PATT
	 .word	mus_pkmn_sv_vs_penny_4_088
@ 097   ----------------------------------------
	.byte	PATT
	 .word	mus_pkmn_sv_vs_penny_4_089
@ 098   ----------------------------------------
	.byte		N12   , Fn3 , v064
	.byte	W36
	.byte		        Gn3 
	.byte	W36
	.byte		N84   , Gs3 
	.byte	W24
@ 099   ----------------------------------------
	.byte	W96
@ 100   ----------------------------------------
	.byte		N18   , As3 
	.byte	W84
	.byte		N12   
	.byte	W12
@ 101   ----------------------------------------
	.byte	W12
	.byte		N18   
	.byte	W48
	.byte		N12   
	.byte	W12
	.byte		N12   
	.byte	W24
@ 102   ----------------------------------------
	.byte		TIE   , Cn4 
	.byte	W96
@ 103   ----------------------------------------
	.byte	W96
	.byte		EOT   
@ 104   ----------------------------------------
	.byte	FINE

@**************** Track 5 (Midi-Chn.5) ****************@

mus_pkmn_sv_vs_penny_5:
	.byte		VOL   , 127*mus_pkmn_sv_vs_penny_mvl/mxv
	.byte	KEYSH , mus_pkmn_sv_vs_penny_key+0
@ 000   ----------------------------------------
	.byte		VOICE , 4 @ Electric Piano
	.byte	W96
@ 001   ----------------------------------------
	.byte	W96
@ 002   ----------------------------------------
	.byte	W96
@ 003   ----------------------------------------
	.byte	W96
@ 004   ----------------------------------------
	.byte	W96
@ 005   ----------------------------------------
	.byte	W96
@ 006   ----------------------------------------
	.byte	W96
@ 007   ----------------------------------------
	.byte	W96
@ 008   ----------------------------------------
	.byte	W96
@ 009   ----------------------------------------
	.byte	W96
@ 010   ----------------------------------------
	.byte	W96
@ 011   ----------------------------------------
	.byte	W96
@ 012   ----------------------------------------
	.byte	W96
@ 013   ----------------------------------------
	.byte	W96
@ 014   ----------------------------------------
	.byte	W96
@ 015   ----------------------------------------
	.byte	W96
@ 016   ----------------------------------------
	.byte	W96
@ 017   ----------------------------------------
	.byte	W96
@ 018   ----------------------------------------
	.byte	W96
@ 019   ----------------------------------------
	.byte	W96
@ 020   ----------------------------------------
	.byte	W96
@ 021   ----------------------------------------
	.byte	W96
@ 022   ----------------------------------------
	.byte	W96
@ 023   ----------------------------------------
	.byte	W96
@ 024   ----------------------------------------
	.byte	W96
@ 025   ----------------------------------------
	.byte	W96
@ 026   ----------------------------------------
	.byte	W96
@ 027   ----------------------------------------
	.byte	W96
@ 028   ----------------------------------------
	.byte	W96
@ 029   ----------------------------------------
	.byte	W96
@ 030   ----------------------------------------
	.byte	W96
@ 031   ----------------------------------------
mus_pkmn_sv_vs_penny_5_031:
	.byte	W24
	.byte		N12   , Dn4 , v064
	.byte	W24
	.byte		        Dn5 
	.byte	W24
	.byte		        An4 
	.byte	W12
	.byte		N24   , As4 
	.byte	W12
	.byte	PEND
@ 032   ----------------------------------------
mus_pkmn_sv_vs_penny_5_032:
	.byte	W72
	.byte		N12   , As4 , v064
	.byte	W12
	.byte		N18   , Cn5 
	.byte	W12
	.byte	PEND
@ 033   ----------------------------------------
	.byte	W24
	.byte		N12   , As4 
	.byte	W12
	.byte		        An4 
	.byte	W24
	.byte		        As4 
	.byte	W24
	.byte		        Gn4 
	.byte	W12
@ 034   ----------------------------------------
	.byte	W96
@ 035   ----------------------------------------
	.byte	PATT
	 .word	mus_pkmn_sv_vs_penny_5_031
@ 036   ----------------------------------------
	.byte	PATT
	 .word	mus_pkmn_sv_vs_penny_5_032
@ 037   ----------------------------------------
	.byte	W24
	.byte		N12   , As4 , v064
	.byte	W12
	.byte		        An4 
	.byte	W24
	.byte		        As4 
	.byte	W24
	.byte		        Dn5 
	.byte	W12
@ 038   ----------------------------------------
	.byte	W96
@ 039   ----------------------------------------
	.byte	W24
	.byte		        Gn4 
	.byte	W24
	.byte		        As4 
	.byte	W24
	.byte		        Dn5 
	.byte	W24
@ 040   ----------------------------------------
	.byte		        Fn5 
	.byte	W24
	.byte		        Ds5 
	.byte	W12
	.byte		N12   
	.byte	W12
	.byte		        Dn5 
	.byte	W12
	.byte		N12   
	.byte	W12
	.byte		        Cn5 
	.byte	W24
@ 041   ----------------------------------------
	.byte		N12   
	.byte	W12
	.byte		N12   
	.byte	W24
	.byte		        Ds5 
	.byte	W12
	.byte		N12   
	.byte	W12
	.byte		        Dn5 
	.byte	W12
	.byte		N12   
	.byte	W24
@ 042   ----------------------------------------
	.byte		        Ds5 
	.byte	W24
	.byte		        Dn5 
	.byte	W12
	.byte		N12   
	.byte	W24
	.byte		        Cn5 
	.byte	W12
	.byte		N12   
	.byte	W24
@ 043   ----------------------------------------
	.byte		        As4 
	.byte	W12
	.byte		N12   
	.byte	W24
	.byte		        Dn5 
	.byte	W12
	.byte		N12   
	.byte	W24
	.byte		        Cn5 
	.byte	W24
@ 044   ----------------------------------------
	.byte		        Gs4 
	.byte	W24
	.byte		N12   
	.byte	W12
	.byte		        As4 
	.byte	W24
	.byte		N12   
	.byte	W12
	.byte		        Cn5 
	.byte	W24
@ 045   ----------------------------------------
	.byte		N12   
	.byte	W12
	.byte		        Dn5 
	.byte	W24
	.byte		N12   
	.byte	W12
	.byte		        Ds5 
	.byte	W24
	.byte		        Fn5 
	.byte	W24
@ 046   ----------------------------------------
	.byte		        Dn5 
	.byte	W96
@ 047   ----------------------------------------
	.byte		        Fs5 
	.byte	W12
	.byte	FINE

@**************** Track 6 (Midi-Chn.6) ****************@

mus_pkmn_sv_vs_penny_6:
	.byte	KEYSH , mus_pkmn_sv_vs_penny_key+0
@ 000   ----------------------------------------
	.byte		VOICE , 27 @ 29 @ Overdriven Guitar
	.byte		VOL   , 51*mus_pkmn_sv_vs_penny_mvl/mxv
	.byte	W96
@ 001   ----------------------------------------
	.byte	W96
@ 002   ----------------------------------------
	.byte	W96
@ 003   ----------------------------------------
	.byte	W96
@ 004   ----------------------------------------
	.byte	W96
@ 005   ----------------------------------------
	.byte	W96
@ 006   ----------------------------------------
	.byte	W96
@ 007   ----------------------------------------
	.byte	W96
@ 008   ----------------------------------------
	.byte	W96
@ 009   ----------------------------------------
	.byte	W96
@ 010   ----------------------------------------
	.byte	W96
@ 011   ----------------------------------------
	.byte	W96
@ 012   ----------------------------------------
	.byte	W96
@ 013   ----------------------------------------
	.byte	W96
@ 014   ----------------------------------------
	.byte	W96
@ 015   ----------------------------------------
	.byte	W96
@ 016   ----------------------------------------
	.byte	W96
@ 017   ----------------------------------------
	.byte	W96
@ 018   ----------------------------------------
	.byte	W96
@ 019   ----------------------------------------
	.byte	W96
@ 020   ----------------------------------------
	.byte	W96
@ 021   ----------------------------------------
	.byte	W96
@ 022   ----------------------------------------
	.byte	W96
@ 023   ----------------------------------------
	.byte	W96
@ 024   ----------------------------------------
	.byte	W96
@ 025   ----------------------------------------
	.byte	W96
@ 026   ----------------------------------------
	.byte	W96
@ 027   ----------------------------------------
	.byte	W96
@ 028   ----------------------------------------
	.byte	W96
@ 029   ----------------------------------------
	.byte	W96
@ 030   ----------------------------------------
	.byte	W96
@ 031   ----------------------------------------
	.byte	W96
@ 032   ----------------------------------------
mus_pkmn_sv_vs_penny_6_032:
	.byte		N12   , Ds2 , v064
	.byte	W12
	.byte		N12   
	.byte	W24
	.byte		N24   , As2 
	.byte	W36
	.byte		        Gn2 
	.byte	W24
	.byte	PEND
@ 033   ----------------------------------------
	.byte	W12
	.byte		N12   , Ds2 
	.byte	W12
	.byte		        As2 
	.byte	W12
	.byte		        Gn2 
	.byte	W12
	.byte		        An2 
	.byte	W12
	.byte		        As2 
	.byte	W12
	.byte		N24   , Fn2 
	.byte	W24
@ 034   ----------------------------------------
	.byte		N12   , Gn2 
	.byte	W12
	.byte		N12   
	.byte	W24
	.byte		N24   , Cn3 
	.byte	W36
	.byte		        Dn3 
	.byte	W24
@ 035   ----------------------------------------
	.byte	W12
	.byte		N12   , Cn3 
	.byte	W12
	.byte		        Dn3 
	.byte	W12
	.byte		        An2 
	.byte	W12
	.byte		        As2 
	.byte	W12
	.byte		        Gn2 
	.byte	W12
	.byte		        An2 
	.byte	W12
	.byte		        Fn2 
	.byte	W12
@ 036   ----------------------------------------
	.byte	PATT
	 .word	mus_pkmn_sv_vs_penny_6_032
@ 037   ----------------------------------------
	.byte	W12
	.byte		N12   , Ds2 , v064
	.byte	W12
	.byte		        As2 
	.byte	W12
	.byte		        Gn2 
	.byte	W12
	.byte		        An2 
	.byte	W12
	.byte		        Gn2 
	.byte	W12
	.byte		N24   , Fn2 
	.byte	W24
@ 038   ----------------------------------------
	.byte		N12   , As2 
	.byte	W12
	.byte		N12   
	.byte	W24
	.byte		N24   , Cn3 
	.byte	W36
	.byte		        Dn3 
	.byte	W24
@ 039   ----------------------------------------
	.byte	W12
	.byte		N12   , Cn3 
	.byte	W12
	.byte		        Dn3 
	.byte	W12
	.byte		        An2 
	.byte	W12
	.byte		        As2 
	.byte	W12
	.byte		        Gn2 
	.byte	W12
	.byte		N24   , Fn2 
	.byte	W24
@ 040   ----------------------------------------
	.byte		N12   , Cn3 
	.byte	W12
	.byte		N12   
	.byte	W24
	.byte		N24   , As2 
	.byte	W36
	.byte		        Cn3 
	.byte	W24
@ 041   ----------------------------------------
	.byte	W12
	.byte		N12   , Gn2 
	.byte	W12
	.byte		N12   
	.byte	W12
	.byte		        An2 
	.byte	W12
	.byte		        As2 
	.byte	W12
	.byte		        Gn2 
	.byte	W12
	.byte		        An2 
	.byte	W12
	.byte		        Fn2 
	.byte	W12
@ 042   ----------------------------------------
	.byte		        As2 
	.byte	W12
	.byte		N12   
	.byte	W24
	.byte		N24   , An2 
	.byte	W36
	.byte		        As2 
	.byte	W24
@ 043   ----------------------------------------
	.byte	W12
	.byte		N12   , Gn2 
	.byte	W12
	.byte		        An2 
	.byte	W12
	.byte		        Fn2 
	.byte	W12
	.byte		        As2 
	.byte	W12
	.byte		        Fn2 
	.byte	W12
	.byte		        As2 
	.byte	W12
	.byte		        Fn2 
	.byte	W12
@ 044   ----------------------------------------
	.byte		        Gs2 
	.byte	W12
	.byte		N12   
	.byte	W24
	.byte		N24   , Cn3 
	.byte	W36
	.byte		        As2 
	.byte	W24
@ 045   ----------------------------------------
	.byte	W12
	.byte		N12   , Gs2 
	.byte	W12
	.byte		        Cn3 
	.byte	W12
	.byte		        Gs2 
	.byte	W12
	.byte		        As2 
	.byte	W12
	.byte		        Fs2 
	.byte	W12
	.byte		        As2 
	.byte	W12
	.byte		        En2 
	.byte	W12
@ 046   ----------------------------------------
	.byte		        Dn3 
	.byte	W12
	.byte		N12   
	.byte	W24
	.byte		N24   , En3 
	.byte	W36
	.byte		        Fs3 
	.byte	W24
@ 047   ----------------------------------------
	.byte	W12
	.byte		N12   , Dn3 
	.byte	W12
	.byte		N12   
	.byte	W12
	.byte		        Fs3 
	.byte	W12
	.byte		        Gn3 
	.byte	W12
	.byte		        An3 
	.byte	W12
	.byte		        En3 
	.byte	W12
	.byte		        Fs3 
	.byte	W12
@ 048   ----------------------------------------
	.byte	FINE

@**************** Track 7 (Midi-Chn.7) ****************@

mus_pkmn_sv_vs_penny_7:
	.byte	KEYSH , mus_pkmn_sv_vs_penny_key+0
@ 000   ----------------------------------------
	.byte		VOICE , 19 @ 18 @ Rock Organ
	.byte		VOL   , 101*mus_pkmn_sv_vs_penny_mvl/mxv
	.byte	W96
@ 001   ----------------------------------------
	.byte	W96
@ 002   ----------------------------------------
	.byte	W96
@ 003   ----------------------------------------
	.byte	W96
@ 004   ----------------------------------------
	.byte	W96
@ 005   ----------------------------------------
	.byte	W96
@ 006   ----------------------------------------
	.byte	W96
@ 007   ----------------------------------------
	.byte	W96
@ 008   ----------------------------------------
	.byte	W96
@ 009   ----------------------------------------
	.byte	W96
@ 010   ----------------------------------------
	.byte	W96
@ 011   ----------------------------------------
	.byte	W96
@ 012   ----------------------------------------
	.byte	W96
@ 013   ----------------------------------------
	.byte	W96
@ 014   ----------------------------------------
	.byte	W96
@ 015   ----------------------------------------
	.byte	W96
@ 016   ----------------------------------------
mus_pkmn_sv_vs_penny_7_016:
	.byte		N18   , Gn3 , v064
	.byte	W24
	.byte		N18   
	.byte	W24
	.byte		N18   
	.byte	W24
	.byte		N18   
	.byte	W24
	.byte	PEND
@ 017   ----------------------------------------
	.byte	PATT
	 .word	mus_pkmn_sv_vs_penny_7_016
@ 018   ----------------------------------------
mus_pkmn_sv_vs_penny_7_018:
	.byte		N18   , Ds3 , v064
	.byte	W24
	.byte		N18   
	.byte	W24
	.byte		N18   
	.byte	W24
	.byte		N18   
	.byte	W24
	.byte	PEND
@ 019   ----------------------------------------
	.byte	PATT
	 .word	mus_pkmn_sv_vs_penny_7_018
@ 020   ----------------------------------------
mus_pkmn_sv_vs_penny_7_020:
	.byte		N18   , As3 , v064
	.byte	W24
	.byte		N18   
	.byte	W24
	.byte		N18   
	.byte	W24
	.byte		N18   
	.byte	W24
	.byte	PEND
@ 021   ----------------------------------------
	.byte	PATT
	 .word	mus_pkmn_sv_vs_penny_7_020
@ 022   ----------------------------------------
	.byte		N18   , Fs3 , v064
	.byte	W24
	.byte		N18   
	.byte	W24
	.byte		N18   
	.byte	W24
	.byte		N18   
	.byte	W18
	.byte	FINE

@**************** Track 8 (Midi-Chn.8) ****************@

mus_pkmn_sv_vs_penny_8:
	.byte	KEYSH , mus_pkmn_sv_vs_penny_key+0
@ 000   ----------------------------------------
	.byte		VOICE , 29 @ 30 @ Distortion Guitar
	.byte		VOL   , 82*mus_pkmn_sv_vs_penny_mvl/mxv
	.byte	W96
@ 001   ----------------------------------------
	.byte	W96
@ 002   ----------------------------------------
	.byte	W96
@ 003   ----------------------------------------
	.byte	W96
@ 004   ----------------------------------------
	.byte	W96
@ 005   ----------------------------------------
	.byte	W96
@ 006   ----------------------------------------
	.byte	W96
@ 007   ----------------------------------------
	.byte	W96
@ 008   ----------------------------------------
	.byte	W96
@ 009   ----------------------------------------
	.byte	W96
@ 010   ----------------------------------------
	.byte	W96
@ 011   ----------------------------------------
	.byte	W96
@ 012   ----------------------------------------
	.byte	W96
@ 013   ----------------------------------------
	.byte	W96
@ 014   ----------------------------------------
	.byte	W96
@ 015   ----------------------------------------
	.byte	W96
@ 016   ----------------------------------------
	.byte	W96
@ 017   ----------------------------------------
	.byte	W96
@ 018   ----------------------------------------
	.byte	W96
@ 019   ----------------------------------------
	.byte	W96
@ 020   ----------------------------------------
	.byte	W96
@ 021   ----------------------------------------
	.byte	W96
@ 022   ----------------------------------------
	.byte	W96
@ 023   ----------------------------------------
	.byte	W96
@ 024   ----------------------------------------
mus_pkmn_sv_vs_penny_8_024:
	.byte		N12   , Gn4 , v064
	.byte	W24
	.byte		N12   
	.byte	W24
	.byte		N12   
	.byte	W24
	.byte		N12   
	.byte	W24
	.byte	PEND
@ 025   ----------------------------------------
	.byte	PATT
	 .word	mus_pkmn_sv_vs_penny_8_024
@ 026   ----------------------------------------
mus_pkmn_sv_vs_penny_8_026:
	.byte		N12   , Ds4 , v064
	.byte	W24
	.byte		N12   
	.byte	W24
	.byte		N12   
	.byte	W24
	.byte		N12   
	.byte	W24
	.byte	PEND
@ 027   ----------------------------------------
mus_pkmn_sv_vs_penny_8_027:
	.byte		N12   , Ds4 , v064
	.byte	W24
	.byte		N12   
	.byte	W24
	.byte		N24   
	.byte	W24
	.byte		N12   
	.byte	W24
	.byte	PEND
@ 028   ----------------------------------------
mus_pkmn_sv_vs_penny_8_028:
	.byte		N12   , As4 , v064
	.byte	W24
	.byte		N12   
	.byte	W24
	.byte		N12   
	.byte	W24
	.byte		N12   
	.byte	W24
	.byte	PEND
@ 029   ----------------------------------------
	.byte		        An4 
	.byte	W24
	.byte		N12   
	.byte	W24
	.byte		N12   
	.byte	W24
	.byte		N12   
	.byte	W24
@ 030   ----------------------------------------
	.byte	PATT
	 .word	mus_pkmn_sv_vs_penny_8_024
@ 031   ----------------------------------------
	.byte		N12   , Gn4 , v064
	.byte	W12
	.byte		N12   
	.byte	W12
	.byte		N12   
	.byte	W12
	.byte		N12   
	.byte	W12
	.byte		N12   
	.byte	W12
	.byte		N12   
	.byte	W12
	.byte		N12   
	.byte	W12
	.byte		N12   
	.byte	W12
@ 032   ----------------------------------------
	.byte		N48   
	.byte	W96
@ 033   ----------------------------------------
	.byte	W96
@ 034   ----------------------------------------
	.byte	W96
@ 035   ----------------------------------------
	.byte	W96
@ 036   ----------------------------------------
	.byte	W96
@ 037   ----------------------------------------
	.byte	W96
@ 038   ----------------------------------------
	.byte	W96
@ 039   ----------------------------------------
	.byte	W96
@ 040   ----------------------------------------
	.byte	W96
@ 041   ----------------------------------------
	.byte	W96
@ 042   ----------------------------------------
	.byte	W96
@ 043   ----------------------------------------
	.byte	W96
@ 044   ----------------------------------------
	.byte	W96
@ 045   ----------------------------------------
	.byte	W96
@ 046   ----------------------------------------
	.byte	W96
@ 047   ----------------------------------------
	.byte	W96
@ 048   ----------------------------------------
	.byte	PATT
	 .word	mus_pkmn_sv_vs_penny_8_024
@ 049   ----------------------------------------
	.byte	PATT
	 .word	mus_pkmn_sv_vs_penny_8_024
@ 050   ----------------------------------------
	.byte	PATT
	 .word	mus_pkmn_sv_vs_penny_8_026
@ 051   ----------------------------------------
	.byte	PATT
	 .word	mus_pkmn_sv_vs_penny_8_027
@ 052   ----------------------------------------
	.byte	PATT
	 .word	mus_pkmn_sv_vs_penny_8_028
@ 053   ----------------------------------------
	.byte	PATT
	 .word	mus_pkmn_sv_vs_penny_8_028
@ 054   ----------------------------------------
	.byte		N12   , Dn4 , v064
	.byte	W24
	.byte		N12   
	.byte	W24
	.byte		N12   
	.byte	W24
	.byte		N12   
	.byte	W24
@ 055   ----------------------------------------
	.byte	W96
@ 056   ----------------------------------------
	.byte	PATT
	 .word	mus_pkmn_sv_vs_penny_8_024
@ 057   ----------------------------------------
	.byte	PATT
	 .word	mus_pkmn_sv_vs_penny_8_024
@ 058   ----------------------------------------
	.byte	PATT
	 .word	mus_pkmn_sv_vs_penny_8_026
@ 059   ----------------------------------------
	.byte	PATT
	 .word	mus_pkmn_sv_vs_penny_8_026
@ 060   ----------------------------------------
	.byte		N12   , As4 , v064
	.byte	W48
	.byte		N12   
	.byte	W48
@ 061   ----------------------------------------
	.byte		        An4 
	.byte	W48
	.byte		N12   
	.byte	W48
@ 062   ----------------------------------------
	.byte	PATT
	 .word	mus_pkmn_sv_vs_penny_8_024
@ 063   ----------------------------------------
	.byte	W96
@ 064   ----------------------------------------
	.byte	W96
@ 065   ----------------------------------------
	.byte	W96
@ 066   ----------------------------------------
	.byte	W96
@ 067   ----------------------------------------
	.byte	W96
@ 068   ----------------------------------------
	.byte	W96
@ 069   ----------------------------------------
	.byte	W96
@ 070   ----------------------------------------
	.byte	W96
@ 071   ----------------------------------------
	.byte	W96
@ 072   ----------------------------------------
mus_pkmn_sv_vs_penny_8_072:
	.byte		N12   , Fn4 , v064
	.byte	W24
	.byte		N12   
	.byte	W24
	.byte		N12   
	.byte	W18
	.byte		N06   , En4 
	.byte	W06
	.byte		        Fn4 
	.byte	W24
	.byte	PEND
@ 073   ----------------------------------------
	.byte	PATT
	 .word	mus_pkmn_sv_vs_penny_8_072
@ 074   ----------------------------------------
	.byte	PATT
	 .word	mus_pkmn_sv_vs_penny_8_072
@ 075   ----------------------------------------
	.byte	PATT
	 .word	mus_pkmn_sv_vs_penny_8_072
@ 076   ----------------------------------------
mus_pkmn_sv_vs_penny_8_076:
	.byte		N12   , Gn4 , v064
	.byte	W24
	.byte		N12   
	.byte	W24
	.byte		N12   
	.byte	W18
	.byte		N06   , Fs4 
	.byte	W06
	.byte		        Gn4 
	.byte	W24
	.byte	PEND
@ 077   ----------------------------------------
	.byte	PATT
	 .word	mus_pkmn_sv_vs_penny_8_076
@ 078   ----------------------------------------
	.byte	PATT
	 .word	mus_pkmn_sv_vs_penny_8_076
@ 079   ----------------------------------------
	.byte	PATT
	 .word	mus_pkmn_sv_vs_penny_8_076
@ 080   ----------------------------------------
	.byte	PATT
	 .word	mus_pkmn_sv_vs_penny_8_072
@ 081   ----------------------------------------
	.byte	PATT
	 .word	mus_pkmn_sv_vs_penny_8_072
@ 082   ----------------------------------------
	.byte	PATT
	 .word	mus_pkmn_sv_vs_penny_8_072
@ 083   ----------------------------------------
	.byte	PATT
	 .word	mus_pkmn_sv_vs_penny_8_072
@ 084   ----------------------------------------
	.byte	PATT
	 .word	mus_pkmn_sv_vs_penny_8_076
@ 085   ----------------------------------------
	.byte	PATT
	 .word	mus_pkmn_sv_vs_penny_8_076
@ 086   ----------------------------------------
	.byte	PATT
	 .word	mus_pkmn_sv_vs_penny_8_076
@ 087   ----------------------------------------
	.byte	PATT
	 .word	mus_pkmn_sv_vs_penny_8_076
@ 088   ----------------------------------------
mus_pkmn_sv_vs_penny_8_088:
	.byte		N12   , Gs4 , v064
	.byte	W24
	.byte		N12   
	.byte	W24
	.byte		N12   
	.byte	W24
	.byte		N12   
	.byte	W24
	.byte	PEND
@ 089   ----------------------------------------
	.byte	PATT
	 .word	mus_pkmn_sv_vs_penny_8_088
@ 090   ----------------------------------------
	.byte	PATT
	 .word	mus_pkmn_sv_vs_penny_8_028
@ 091   ----------------------------------------
	.byte	PATT
	 .word	mus_pkmn_sv_vs_penny_8_028
@ 092   ----------------------------------------
mus_pkmn_sv_vs_penny_8_092:
	.byte		N12   , Fs4 , v064
	.byte	W24
	.byte		N12   
	.byte	W24
	.byte		N12   
	.byte	W24
	.byte		N12   
	.byte	W24
	.byte	PEND
@ 093   ----------------------------------------
	.byte	PATT
	 .word	mus_pkmn_sv_vs_penny_8_092
@ 094   ----------------------------------------
	.byte	PATT
	 .word	mus_pkmn_sv_vs_penny_8_028
@ 095   ----------------------------------------
	.byte	PATT
	 .word	mus_pkmn_sv_vs_penny_8_028
@ 096   ----------------------------------------
	.byte	PATT
	 .word	mus_pkmn_sv_vs_penny_8_088
@ 097   ----------------------------------------
	.byte	PATT
	 .word	mus_pkmn_sv_vs_penny_8_088
@ 098   ----------------------------------------
	.byte		N12   , As4 , v064
	.byte	W36
	.byte		        Cn5 
	.byte	W36
	.byte		        Gs4 
	.byte	W12
	.byte	FINE

@**************** Track 9 (Midi-Chn.9) ****************@

mus_pkmn_sv_vs_penny_9:
	.byte	KEYSH , mus_pkmn_sv_vs_penny_key+0
@ 000   ----------------------------------------
	.byte		VOICE , 29 @ 30 @ Distortion Guitar
	.byte		VOL   , 44*mus_pkmn_sv_vs_penny_mvl/mxv
	.byte		N12   , Gn3 , v064
	.byte	W12
	.byte		        Dn4 
	.byte	W12
	.byte		        Gn3 
	.byte	W12
	.byte		        Dn4 
	.byte	W12
	.byte		        Gn3 
	.byte	W12
	.byte		        En4 
	.byte	W12
	.byte		        Fs4 
	.byte	W12
	.byte		        As3 
	.byte	W12
@ 001   ----------------------------------------
mus_pkmn_sv_vs_penny_9_001:
	.byte		N12   , Gn3 , v064
	.byte	W12
	.byte		        An3 
	.byte	W12
	.byte		        As3 
	.byte	W12
	.byte		        Gn3 
	.byte	W12
	.byte		N12   
	.byte	W12
	.byte		        Dn4 
	.byte	W12
	.byte		        Gn3 
	.byte	W12
	.byte		        Dn4 
	.byte	W12
	.byte	PEND
@ 002   ----------------------------------------
mus_pkmn_sv_vs_penny_9_002:
	.byte		N12   , Gn3 , v064
	.byte	W12
	.byte		        Dn4 
	.byte	W12
	.byte		        Gn3 
	.byte	W12
	.byte		        Dn4 
	.byte	W12
	.byte		        Gn3 
	.byte	W12
	.byte		        En4 
	.byte	W12
	.byte		        Fs4 
	.byte	W12
	.byte		        As3 
	.byte	W12
	.byte	PEND
@ 003   ----------------------------------------
	.byte	PATT
	 .word	mus_pkmn_sv_vs_penny_9_001
@ 004   ----------------------------------------
	.byte	PATT
	 .word	mus_pkmn_sv_vs_penny_9_002
@ 005   ----------------------------------------
	.byte	PATT
	 .word	mus_pkmn_sv_vs_penny_9_001
@ 006   ----------------------------------------
	.byte	PATT
	 .word	mus_pkmn_sv_vs_penny_9_002
@ 007   ----------------------------------------
	.byte	PATT
	 .word	mus_pkmn_sv_vs_penny_9_001
@ 008   ----------------------------------------
	.byte	PATT
	 .word	mus_pkmn_sv_vs_penny_9_002
@ 009   ----------------------------------------
	.byte	PATT
	 .word	mus_pkmn_sv_vs_penny_9_001
@ 010   ----------------------------------------
	.byte	PATT
	 .word	mus_pkmn_sv_vs_penny_9_002
@ 011   ----------------------------------------
	.byte	PATT
	 .word	mus_pkmn_sv_vs_penny_9_001
@ 012   ----------------------------------------
	.byte	PATT
	 .word	mus_pkmn_sv_vs_penny_9_002
@ 013   ----------------------------------------
	.byte	PATT
	 .word	mus_pkmn_sv_vs_penny_9_001
@ 014   ----------------------------------------
	.byte	PATT
	 .word	mus_pkmn_sv_vs_penny_9_002
@ 015   ----------------------------------------
	.byte	PATT
	 .word	mus_pkmn_sv_vs_penny_9_001
@ 016   ----------------------------------------
	.byte	FINE

@**************** Track 10 (Midi-Chn.11) ****************@

mus_pkmn_sv_vs_penny_10:
	.byte	KEYSH , mus_pkmn_sv_vs_penny_key+0
@ 000   ----------------------------------------
	.byte		VOICE , 103 @ 33 @ Fingered Bass
	.byte		VOL   , 106*mus_pkmn_sv_vs_penny_mvl/mxv
	.byte		N12   , Gn0 , v064
	.byte	W24
	.byte		N12   
	.byte	W24
	.byte		N12   
	.byte	W24
	.byte		N12   
	.byte	W24
@ 001   ----------------------------------------
mus_pkmn_sv_vs_penny_10_001:
	.byte		N12   , Gn0 , v064
	.byte	W24
	.byte		N12   
	.byte	W24
	.byte		N12   
	.byte	W24
	.byte		N12   
	.byte	W24
	.byte	PEND
@ 002   ----------------------------------------
	.byte	PATT
	 .word	mus_pkmn_sv_vs_penny_10_001
@ 003   ----------------------------------------
	.byte	PATT
	 .word	mus_pkmn_sv_vs_penny_10_001
@ 004   ----------------------------------------
	.byte	PATT
	 .word	mus_pkmn_sv_vs_penny_10_001
@ 005   ----------------------------------------
	.byte	PATT
	 .word	mus_pkmn_sv_vs_penny_10_001
@ 006   ----------------------------------------
	.byte	PATT
	 .word	mus_pkmn_sv_vs_penny_10_001
@ 007   ----------------------------------------
	.byte	PATT
	 .word	mus_pkmn_sv_vs_penny_10_001
@ 008   ----------------------------------------
	.byte	PATT
	 .word	mus_pkmn_sv_vs_penny_10_001
@ 009   ----------------------------------------
	.byte	PATT
	 .word	mus_pkmn_sv_vs_penny_10_001
@ 010   ----------------------------------------
	.byte	PATT
	 .word	mus_pkmn_sv_vs_penny_10_001
@ 011   ----------------------------------------
	.byte	PATT
	 .word	mus_pkmn_sv_vs_penny_10_001
@ 012   ----------------------------------------
	.byte	PATT
	 .word	mus_pkmn_sv_vs_penny_10_001
@ 013   ----------------------------------------
	.byte	PATT
	 .word	mus_pkmn_sv_vs_penny_10_001
@ 014   ----------------------------------------
	.byte	PATT
	 .word	mus_pkmn_sv_vs_penny_10_001
@ 015   ----------------------------------------
	.byte	PATT
	 .word	mus_pkmn_sv_vs_penny_10_001
@ 016   ----------------------------------------
	.byte	PATT
	 .word	mus_pkmn_sv_vs_penny_10_001
@ 017   ----------------------------------------
	.byte	PATT
	 .word	mus_pkmn_sv_vs_penny_10_001
@ 018   ----------------------------------------
mus_pkmn_sv_vs_penny_10_018:
	.byte		N12   , Ds0 , v064
	.byte	W24
	.byte		N12   
	.byte	W24
	.byte		N12   
	.byte	W24
	.byte		N12   
	.byte	W24
	.byte	PEND
@ 019   ----------------------------------------
	.byte	PATT
	 .word	mus_pkmn_sv_vs_penny_10_018
@ 020   ----------------------------------------
mus_pkmn_sv_vs_penny_10_020:
	.byte		N12   , As0 , v064
	.byte	W24
	.byte		N12   
	.byte	W24
	.byte		N12   
	.byte	W24
	.byte		N12   
	.byte	W24
	.byte	PEND
@ 021   ----------------------------------------
	.byte	PATT
	 .word	mus_pkmn_sv_vs_penny_10_020
@ 022   ----------------------------------------
mus_pkmn_sv_vs_penny_10_022:
	.byte		N12   , Dn0 , v064
	.byte	W24
	.byte		N12   
	.byte	W24
	.byte		N12   
	.byte	W24
	.byte		N12   
	.byte	W24
	.byte	PEND
@ 023   ----------------------------------------
	.byte	W96
@ 024   ----------------------------------------
	.byte	PATT
	 .word	mus_pkmn_sv_vs_penny_10_001
@ 025   ----------------------------------------
	.byte	PATT
	 .word	mus_pkmn_sv_vs_penny_10_001
@ 026   ----------------------------------------
	.byte	PATT
	 .word	mus_pkmn_sv_vs_penny_10_018
@ 027   ----------------------------------------
	.byte	PATT
	 .word	mus_pkmn_sv_vs_penny_10_018
@ 028   ----------------------------------------
	.byte	PATT
	 .word	mus_pkmn_sv_vs_penny_10_020
@ 029   ----------------------------------------
mus_pkmn_sv_vs_penny_10_029:
	.byte		N12   , An0 , v064
	.byte	W24
	.byte		N12   
	.byte	W24
	.byte		N12   
	.byte	W24
	.byte		N12   
	.byte	W24
	.byte	PEND
@ 030   ----------------------------------------
	.byte	PATT
	 .word	mus_pkmn_sv_vs_penny_10_001
@ 031   ----------------------------------------
	.byte	PATT
	 .word	mus_pkmn_sv_vs_penny_10_001
@ 032   ----------------------------------------
	.byte	PATT
	 .word	mus_pkmn_sv_vs_penny_10_018
@ 033   ----------------------------------------
mus_pkmn_sv_vs_penny_10_033:
	.byte		N12   , Fn0 , v064
	.byte	W24
	.byte		N12   
	.byte	W24
	.byte		N12   
	.byte	W24
	.byte		N12   
	.byte	W24
	.byte	PEND
@ 034   ----------------------------------------
	.byte	PATT
	 .word	mus_pkmn_sv_vs_penny_10_001
@ 035   ----------------------------------------
	.byte	PATT
	 .word	mus_pkmn_sv_vs_penny_10_001
@ 036   ----------------------------------------
	.byte	PATT
	 .word	mus_pkmn_sv_vs_penny_10_018
@ 037   ----------------------------------------
	.byte	PATT
	 .word	mus_pkmn_sv_vs_penny_10_033
@ 038   ----------------------------------------
	.byte	PATT
	 .word	mus_pkmn_sv_vs_penny_10_020
@ 039   ----------------------------------------
	.byte	PATT
	 .word	mus_pkmn_sv_vs_penny_10_020
@ 040   ----------------------------------------
mus_pkmn_sv_vs_penny_10_040:
	.byte		N12   , Cn1 , v064
	.byte	W24
	.byte		N12   
	.byte	W24
	.byte		N12   
	.byte	W24
	.byte		N12   
	.byte	W24
	.byte	PEND
@ 041   ----------------------------------------
	.byte	PATT
	 .word	mus_pkmn_sv_vs_penny_10_040
@ 042   ----------------------------------------
	.byte	PATT
	 .word	mus_pkmn_sv_vs_penny_10_001
@ 043   ----------------------------------------
	.byte	PATT
	 .word	mus_pkmn_sv_vs_penny_10_001
@ 044   ----------------------------------------
mus_pkmn_sv_vs_penny_10_044:
	.byte		N12   , Gs0 , v064
	.byte	W24
	.byte		N12   
	.byte	W24
	.byte		N12   
	.byte	W24
	.byte		N12   
	.byte	W24
	.byte	PEND
@ 045   ----------------------------------------
	.byte	PATT
	 .word	mus_pkmn_sv_vs_penny_10_044
@ 046   ----------------------------------------
mus_pkmn_sv_vs_penny_10_046:
	.byte		N12   , Dn1 , v064
	.byte	W24
	.byte		N12   
	.byte	W24
	.byte		N12   
	.byte	W24
	.byte		N12   
	.byte	W24
	.byte	PEND
@ 047   ----------------------------------------
	.byte	PATT
	 .word	mus_pkmn_sv_vs_penny_10_046
@ 048   ----------------------------------------
	.byte	PATT
	 .word	mus_pkmn_sv_vs_penny_10_001
@ 049   ----------------------------------------
	.byte	PATT
	 .word	mus_pkmn_sv_vs_penny_10_001
@ 050   ----------------------------------------
	.byte	PATT
	 .word	mus_pkmn_sv_vs_penny_10_018
@ 051   ----------------------------------------
	.byte	PATT
	 .word	mus_pkmn_sv_vs_penny_10_018
@ 052   ----------------------------------------
	.byte	PATT
	 .word	mus_pkmn_sv_vs_penny_10_020
@ 053   ----------------------------------------
	.byte	PATT
	 .word	mus_pkmn_sv_vs_penny_10_020
@ 054   ----------------------------------------
	.byte	PATT
	 .word	mus_pkmn_sv_vs_penny_10_022
@ 055   ----------------------------------------
	.byte	W96
@ 056   ----------------------------------------
	.byte	PATT
	 .word	mus_pkmn_sv_vs_penny_10_001
@ 057   ----------------------------------------
	.byte	PATT
	 .word	mus_pkmn_sv_vs_penny_10_001
@ 058   ----------------------------------------
	.byte	PATT
	 .word	mus_pkmn_sv_vs_penny_10_018
@ 059   ----------------------------------------
	.byte	PATT
	 .word	mus_pkmn_sv_vs_penny_10_018
@ 060   ----------------------------------------
	.byte		N12   , As0 , v064
	.byte	W48
	.byte		N12   
	.byte	W48
@ 061   ----------------------------------------
	.byte		        An0 
	.byte	W48
	.byte		N12   
	.byte	W48
@ 062   ----------------------------------------
	.byte	PATT
	 .word	mus_pkmn_sv_vs_penny_10_001
@ 063   ----------------------------------------
	.byte	PATT
	 .word	mus_pkmn_sv_vs_penny_10_001
@ 064   ----------------------------------------
	.byte	PATT
	 .word	mus_pkmn_sv_vs_penny_10_018
@ 065   ----------------------------------------
mus_pkmn_sv_vs_penny_10_065:
	.byte		N12   , Fn0 , v064
	.byte	W24
	.byte		N12   
	.byte	W24
	.byte		        Gn0 
	.byte	W24
	.byte		N12   
	.byte	W24
	.byte	PEND
@ 066   ----------------------------------------
	.byte	PATT
	 .word	mus_pkmn_sv_vs_penny_10_018
@ 067   ----------------------------------------
	.byte	PATT
	 .word	mus_pkmn_sv_vs_penny_10_065
@ 068   ----------------------------------------
	.byte	PATT
	 .word	mus_pkmn_sv_vs_penny_10_018
@ 069   ----------------------------------------
	.byte	PATT
	 .word	mus_pkmn_sv_vs_penny_10_022
@ 070   ----------------------------------------
mus_pkmn_sv_vs_penny_10_070:
	.byte		N12   , Fs0 , v064
	.byte	W24
	.byte		N12   
	.byte	W24
	.byte		N12   
	.byte	W24
	.byte		N12   
	.byte	W24
	.byte	PEND
@ 071   ----------------------------------------
	.byte	PATT
	 .word	mus_pkmn_sv_vs_penny_10_029
@ 072   ----------------------------------------
	.byte	PATT
	 .word	mus_pkmn_sv_vs_penny_10_033
@ 073   ----------------------------------------
	.byte	PATT
	 .word	mus_pkmn_sv_vs_penny_10_033
@ 074   ----------------------------------------
	.byte	PATT
	 .word	mus_pkmn_sv_vs_penny_10_033
@ 075   ----------------------------------------
	.byte	PATT
	 .word	mus_pkmn_sv_vs_penny_10_033
@ 076   ----------------------------------------
	.byte	PATT
	 .word	mus_pkmn_sv_vs_penny_10_001
@ 077   ----------------------------------------
	.byte	PATT
	 .word	mus_pkmn_sv_vs_penny_10_001
@ 078   ----------------------------------------
	.byte	PATT
	 .word	mus_pkmn_sv_vs_penny_10_001
@ 079   ----------------------------------------
	.byte	PATT
	 .word	mus_pkmn_sv_vs_penny_10_001
@ 080   ----------------------------------------
	.byte	PATT
	 .word	mus_pkmn_sv_vs_penny_10_033
@ 081   ----------------------------------------
	.byte	PATT
	 .word	mus_pkmn_sv_vs_penny_10_033
@ 082   ----------------------------------------
	.byte	PATT
	 .word	mus_pkmn_sv_vs_penny_10_033
@ 083   ----------------------------------------
	.byte	PATT
	 .word	mus_pkmn_sv_vs_penny_10_033
@ 084   ----------------------------------------
	.byte	PATT
	 .word	mus_pkmn_sv_vs_penny_10_001
@ 085   ----------------------------------------
	.byte	PATT
	 .word	mus_pkmn_sv_vs_penny_10_001
@ 086   ----------------------------------------
	.byte	PATT
	 .word	mus_pkmn_sv_vs_penny_10_001
@ 087   ----------------------------------------
	.byte	PATT
	 .word	mus_pkmn_sv_vs_penny_10_001
@ 088   ----------------------------------------
	.byte	PATT
	 .word	mus_pkmn_sv_vs_penny_10_044
@ 089   ----------------------------------------
	.byte	PATT
	 .word	mus_pkmn_sv_vs_penny_10_044
@ 090   ----------------------------------------
	.byte	PATT
	 .word	mus_pkmn_sv_vs_penny_10_020
@ 091   ----------------------------------------
	.byte	PATT
	 .word	mus_pkmn_sv_vs_penny_10_020
@ 092   ----------------------------------------
	.byte	PATT
	 .word	mus_pkmn_sv_vs_penny_10_070
@ 093   ----------------------------------------
	.byte	PATT
	 .word	mus_pkmn_sv_vs_penny_10_070
@ 094   ----------------------------------------
	.byte	PATT
	 .word	mus_pkmn_sv_vs_penny_10_020
@ 095   ----------------------------------------
	.byte	PATT
	 .word	mus_pkmn_sv_vs_penny_10_020
@ 096   ----------------------------------------
	.byte	PATT
	 .word	mus_pkmn_sv_vs_penny_10_044
@ 097   ----------------------------------------
	.byte	PATT
	 .word	mus_pkmn_sv_vs_penny_10_044
@ 098   ----------------------------------------
	.byte		N36   , As0 , v064
	.byte	W36
	.byte		        Cn1 
	.byte	W36
	.byte		N42   , Gs0 
	.byte	W24
@ 099   ----------------------------------------
	.byte	W48
	.byte		N12   
	.byte	W24
	.byte		N12   
	.byte	W24
@ 100   ----------------------------------------
	.byte	PATT
	 .word	mus_pkmn_sv_vs_penny_10_001
@ 101   ----------------------------------------
	.byte	PATT
	 .word	mus_pkmn_sv_vs_penny_10_001
@ 102   ----------------------------------------
	.byte	PATT
	 .word	mus_pkmn_sv_vs_penny_10_044
@ 103   ----------------------------------------
	.byte		N12   , Gs0 , v064
	.byte	W24
	.byte		N12   
	.byte	W24
	.byte		N12   
	.byte	W24
	.byte		N12   
	.byte	W12
	.byte	FINE

@**************** Track 11 (Midi-Chn.12) ****************@

mus_pkmn_sv_vs_penny_11:
	.byte	KEYSH , mus_pkmn_sv_vs_penny_key+0
@ 000   ----------------------------------------
	.byte		VOICE , 86 @ Square
	.byte		VOL   , 150*mus_pkmn_sv_vs_penny_mvl/mxv
	.byte		N12   , Gn0 , v064
	.byte	W24
	.byte		N12   
	.byte	W24
	.byte		N12   
	.byte	W24
	.byte		N12   
	.byte	W24
@ 001   ----------------------------------------
mus_pkmn_sv_vs_penny_11_001:
	.byte		N12   , Gn0 , v064
	.byte	W24
	.byte		N12   
	.byte	W24
	.byte		N12   
	.byte	W24
	.byte		N12   
	.byte	W24
	.byte	PEND
@ 002   ----------------------------------------
	.byte	PATT
	 .word	mus_pkmn_sv_vs_penny_11_001
@ 003   ----------------------------------------
	.byte	PATT
	 .word	mus_pkmn_sv_vs_penny_11_001
@ 004   ----------------------------------------
	.byte	PATT
	 .word	mus_pkmn_sv_vs_penny_11_001
@ 005   ----------------------------------------
	.byte	PATT
	 .word	mus_pkmn_sv_vs_penny_11_001
@ 006   ----------------------------------------
	.byte	PATT
	 .word	mus_pkmn_sv_vs_penny_11_001
@ 007   ----------------------------------------
	.byte	PATT
	 .word	mus_pkmn_sv_vs_penny_11_001
@ 008   ----------------------------------------
	.byte	PATT
	 .word	mus_pkmn_sv_vs_penny_11_001
@ 009   ----------------------------------------
	.byte	PATT
	 .word	mus_pkmn_sv_vs_penny_11_001
@ 010   ----------------------------------------
	.byte	PATT
	 .word	mus_pkmn_sv_vs_penny_11_001
@ 011   ----------------------------------------
	.byte	PATT
	 .word	mus_pkmn_sv_vs_penny_11_001
@ 012   ----------------------------------------
	.byte	PATT
	 .word	mus_pkmn_sv_vs_penny_11_001
@ 013   ----------------------------------------
	.byte	PATT
	 .word	mus_pkmn_sv_vs_penny_11_001
@ 014   ----------------------------------------
	.byte	PATT
	 .word	mus_pkmn_sv_vs_penny_11_001
@ 015   ----------------------------------------
	.byte	PATT
	 .word	mus_pkmn_sv_vs_penny_11_001
@ 016   ----------------------------------------
	.byte	PATT
	 .word	mus_pkmn_sv_vs_penny_11_001
@ 017   ----------------------------------------
	.byte	PATT
	 .word	mus_pkmn_sv_vs_penny_11_001
@ 018   ----------------------------------------
mus_pkmn_sv_vs_penny_11_018:
	.byte		N12   , Ds0 , v064
	.byte	W24
	.byte		N12   
	.byte	W24
	.byte		N12   
	.byte	W24
	.byte		N12   
	.byte	W24
	.byte	PEND
@ 019   ----------------------------------------
	.byte	PATT
	 .word	mus_pkmn_sv_vs_penny_11_018
@ 020   ----------------------------------------
mus_pkmn_sv_vs_penny_11_020:
	.byte		N12   , As0 , v064
	.byte	W24
	.byte		N12   
	.byte	W24
	.byte		N12   
	.byte	W24
	.byte		N12   
	.byte	W24
	.byte	PEND
@ 021   ----------------------------------------
	.byte	PATT
	 .word	mus_pkmn_sv_vs_penny_11_020
@ 022   ----------------------------------------
mus_pkmn_sv_vs_penny_11_022:
	.byte		N12   , Dn0 , v064
	.byte	W24
	.byte		N12   
	.byte	W24
	.byte		N12   
	.byte	W24
	.byte		N12   
	.byte	W24
	.byte	PEND
@ 023   ----------------------------------------
	.byte	W96
@ 024   ----------------------------------------
	.byte	PATT
	 .word	mus_pkmn_sv_vs_penny_11_001
@ 025   ----------------------------------------
	.byte	PATT
	 .word	mus_pkmn_sv_vs_penny_11_001
@ 026   ----------------------------------------
	.byte	PATT
	 .word	mus_pkmn_sv_vs_penny_11_018
@ 027   ----------------------------------------
	.byte	PATT
	 .word	mus_pkmn_sv_vs_penny_11_018
@ 028   ----------------------------------------
	.byte	PATT
	 .word	mus_pkmn_sv_vs_penny_11_020
@ 029   ----------------------------------------
mus_pkmn_sv_vs_penny_11_029:
	.byte		N12   , An0 , v064
	.byte	W24
	.byte		N12   
	.byte	W24
	.byte		N12   
	.byte	W24
	.byte		N12   
	.byte	W24
	.byte	PEND
@ 030   ----------------------------------------
	.byte	PATT
	 .word	mus_pkmn_sv_vs_penny_11_001
@ 031   ----------------------------------------
	.byte	PATT
	 .word	mus_pkmn_sv_vs_penny_11_001
@ 032   ----------------------------------------
	.byte	PATT
	 .word	mus_pkmn_sv_vs_penny_11_018
@ 033   ----------------------------------------
mus_pkmn_sv_vs_penny_11_033:
	.byte		N12   , Fn0 , v064
	.byte	W24
	.byte		N12   
	.byte	W24
	.byte		N12   
	.byte	W24
	.byte		N12   
	.byte	W24
	.byte	PEND
@ 034   ----------------------------------------
	.byte	PATT
	 .word	mus_pkmn_sv_vs_penny_11_001
@ 035   ----------------------------------------
	.byte	PATT
	 .word	mus_pkmn_sv_vs_penny_11_001
@ 036   ----------------------------------------
	.byte	PATT
	 .word	mus_pkmn_sv_vs_penny_11_018
@ 037   ----------------------------------------
	.byte	PATT
	 .word	mus_pkmn_sv_vs_penny_11_033
@ 038   ----------------------------------------
	.byte	PATT
	 .word	mus_pkmn_sv_vs_penny_11_020
@ 039   ----------------------------------------
	.byte	PATT
	 .word	mus_pkmn_sv_vs_penny_11_020
@ 040   ----------------------------------------
mus_pkmn_sv_vs_penny_11_040:
	.byte		N12   , Cn1 , v064
	.byte	W24
	.byte		N12   
	.byte	W24
	.byte		N12   
	.byte	W24
	.byte		N12   
	.byte	W24
	.byte	PEND
@ 041   ----------------------------------------
	.byte	PATT
	 .word	mus_pkmn_sv_vs_penny_11_040
@ 042   ----------------------------------------
	.byte	PATT
	 .word	mus_pkmn_sv_vs_penny_11_001
@ 043   ----------------------------------------
	.byte	PATT
	 .word	mus_pkmn_sv_vs_penny_11_001
@ 044   ----------------------------------------
mus_pkmn_sv_vs_penny_11_044:
	.byte		N12   , Gs0 , v064
	.byte	W24
	.byte		N12   
	.byte	W24
	.byte		N12   
	.byte	W24
	.byte		N12   
	.byte	W24
	.byte	PEND
@ 045   ----------------------------------------
	.byte	PATT
	 .word	mus_pkmn_sv_vs_penny_11_044
@ 046   ----------------------------------------
mus_pkmn_sv_vs_penny_11_046:
	.byte		N12   , Dn1 , v064
	.byte	W24
	.byte		N12   
	.byte	W24
	.byte		N12   
	.byte	W24
	.byte		N12   
	.byte	W24
	.byte	PEND
@ 047   ----------------------------------------
	.byte	PATT
	 .word	mus_pkmn_sv_vs_penny_11_046
@ 048   ----------------------------------------
	.byte	PATT
	 .word	mus_pkmn_sv_vs_penny_11_001
@ 049   ----------------------------------------
	.byte	PATT
	 .word	mus_pkmn_sv_vs_penny_11_001
@ 050   ----------------------------------------
	.byte	PATT
	 .word	mus_pkmn_sv_vs_penny_11_018
@ 051   ----------------------------------------
	.byte	PATT
	 .word	mus_pkmn_sv_vs_penny_11_018
@ 052   ----------------------------------------
	.byte	PATT
	 .word	mus_pkmn_sv_vs_penny_11_020
@ 053   ----------------------------------------
	.byte	PATT
	 .word	mus_pkmn_sv_vs_penny_11_020
@ 054   ----------------------------------------
	.byte	PATT
	 .word	mus_pkmn_sv_vs_penny_11_022
@ 055   ----------------------------------------
	.byte	W96
@ 056   ----------------------------------------
	.byte	PATT
	 .word	mus_pkmn_sv_vs_penny_11_001
@ 057   ----------------------------------------
	.byte	PATT
	 .word	mus_pkmn_sv_vs_penny_11_001
@ 058   ----------------------------------------
	.byte	PATT
	 .word	mus_pkmn_sv_vs_penny_11_018
@ 059   ----------------------------------------
	.byte	PATT
	 .word	mus_pkmn_sv_vs_penny_11_018
@ 060   ----------------------------------------
	.byte		N12   , As0 , v064
	.byte	W48
	.byte		N12   
	.byte	W48
@ 061   ----------------------------------------
	.byte		        An0 
	.byte	W48
	.byte		N12   
	.byte	W48
@ 062   ----------------------------------------
	.byte	PATT
	 .word	mus_pkmn_sv_vs_penny_11_001
@ 063   ----------------------------------------
	.byte	PATT
	 .word	mus_pkmn_sv_vs_penny_11_001
@ 064   ----------------------------------------
	.byte	PATT
	 .word	mus_pkmn_sv_vs_penny_11_018
@ 065   ----------------------------------------
mus_pkmn_sv_vs_penny_11_065:
	.byte		N12   , Fn0 , v064
	.byte	W24
	.byte		N12   
	.byte	W24
	.byte		        Gn0 
	.byte	W24
	.byte		N12   
	.byte	W24
	.byte	PEND
@ 066   ----------------------------------------
	.byte	PATT
	 .word	mus_pkmn_sv_vs_penny_11_018
@ 067   ----------------------------------------
	.byte	PATT
	 .word	mus_pkmn_sv_vs_penny_11_065
@ 068   ----------------------------------------
	.byte	PATT
	 .word	mus_pkmn_sv_vs_penny_11_018
@ 069   ----------------------------------------
	.byte	PATT
	 .word	mus_pkmn_sv_vs_penny_11_022
@ 070   ----------------------------------------
mus_pkmn_sv_vs_penny_11_070:
	.byte		N12   , Fs0 , v064
	.byte	W24
	.byte		N12   
	.byte	W24
	.byte		N12   
	.byte	W24
	.byte		N12   
	.byte	W24
	.byte	PEND
@ 071   ----------------------------------------
	.byte	PATT
	 .word	mus_pkmn_sv_vs_penny_11_029
@ 072   ----------------------------------------
	.byte	PATT
	 .word	mus_pkmn_sv_vs_penny_11_033
@ 073   ----------------------------------------
	.byte	PATT
	 .word	mus_pkmn_sv_vs_penny_11_033
@ 074   ----------------------------------------
	.byte	PATT
	 .word	mus_pkmn_sv_vs_penny_11_033
@ 075   ----------------------------------------
	.byte	PATT
	 .word	mus_pkmn_sv_vs_penny_11_033
@ 076   ----------------------------------------
	.byte	PATT
	 .word	mus_pkmn_sv_vs_penny_11_001
@ 077   ----------------------------------------
	.byte	PATT
	 .word	mus_pkmn_sv_vs_penny_11_001
@ 078   ----------------------------------------
	.byte	PATT
	 .word	mus_pkmn_sv_vs_penny_11_001
@ 079   ----------------------------------------
	.byte	PATT
	 .word	mus_pkmn_sv_vs_penny_11_001
@ 080   ----------------------------------------
	.byte	PATT
	 .word	mus_pkmn_sv_vs_penny_11_033
@ 081   ----------------------------------------
	.byte	PATT
	 .word	mus_pkmn_sv_vs_penny_11_033
@ 082   ----------------------------------------
	.byte	PATT
	 .word	mus_pkmn_sv_vs_penny_11_033
@ 083   ----------------------------------------
	.byte	PATT
	 .word	mus_pkmn_sv_vs_penny_11_033
@ 084   ----------------------------------------
	.byte	PATT
	 .word	mus_pkmn_sv_vs_penny_11_001
@ 085   ----------------------------------------
	.byte	PATT
	 .word	mus_pkmn_sv_vs_penny_11_001
@ 086   ----------------------------------------
	.byte	PATT
	 .word	mus_pkmn_sv_vs_penny_11_001
@ 087   ----------------------------------------
	.byte	PATT
	 .word	mus_pkmn_sv_vs_penny_11_001
@ 088   ----------------------------------------
	.byte	PATT
	 .word	mus_pkmn_sv_vs_penny_11_044
@ 089   ----------------------------------------
	.byte	PATT
	 .word	mus_pkmn_sv_vs_penny_11_044
@ 090   ----------------------------------------
	.byte	PATT
	 .word	mus_pkmn_sv_vs_penny_11_020
@ 091   ----------------------------------------
	.byte	PATT
	 .word	mus_pkmn_sv_vs_penny_11_020
@ 092   ----------------------------------------
	.byte	PATT
	 .word	mus_pkmn_sv_vs_penny_11_070
@ 093   ----------------------------------------
	.byte	PATT
	 .word	mus_pkmn_sv_vs_penny_11_070
@ 094   ----------------------------------------
	.byte	PATT
	 .word	mus_pkmn_sv_vs_penny_11_020
@ 095   ----------------------------------------
	.byte	PATT
	 .word	mus_pkmn_sv_vs_penny_11_020
@ 096   ----------------------------------------
	.byte	PATT
	 .word	mus_pkmn_sv_vs_penny_11_044
@ 097   ----------------------------------------
	.byte	PATT
	 .word	mus_pkmn_sv_vs_penny_11_044
@ 098   ----------------------------------------
	.byte		N36   , As0 , v064
	.byte	W36
	.byte		        Cn1 
	.byte	W36
	.byte		N42   , Gs0 
	.byte	W24
@ 099   ----------------------------------------
	.byte	W48
	.byte		N12   
	.byte	W24
	.byte		N12   
	.byte	W24
@ 100   ----------------------------------------
	.byte	PATT
	 .word	mus_pkmn_sv_vs_penny_11_001
@ 101   ----------------------------------------
	.byte	PATT
	 .word	mus_pkmn_sv_vs_penny_11_001
@ 102   ----------------------------------------
	.byte	PATT
	 .word	mus_pkmn_sv_vs_penny_11_044
@ 103   ----------------------------------------
	.byte		N12   , Gs0 , v064
	.byte	W24
	.byte		N12   
	.byte	W24
	.byte		N12   
	.byte	W24
	.byte		N12   
	.byte	W12
	.byte	FINE

@**************** Track 12 (Midi-Chn.13) ****************@

mus_pkmn_sv_vs_penny_12:
	.byte		VOL   , 127*mus_pkmn_sv_vs_penny_mvl/mxv
	.byte	KEYSH , mus_pkmn_sv_vs_penny_key+0
@ 000   ----------------------------------------
	.byte		VOICE , 119 @ Reverse Cymbal
	.byte	W96
@ 001   ----------------------------------------
	.byte	W96
@ 002   ----------------------------------------
	.byte	W96
@ 003   ----------------------------------------
	.byte	W96
@ 004   ----------------------------------------
	.byte	W96
@ 005   ----------------------------------------
	.byte	W96
@ 006   ----------------------------------------
	.byte	W96
@ 007   ----------------------------------------
	.byte	W96
@ 008   ----------------------------------------
	.byte		TIE   , An3 , v064
	.byte	W96
@ 009   ----------------------------------------
	.byte	W96
@ 010   ----------------------------------------
	.byte	W96
@ 011   ----------------------------------------
	.byte	W96
@ 012   ----------------------------------------
	.byte		        As3 
	.byte	W96
@ 013   ----------------------------------------
	.byte	W96
@ 014   ----------------------------------------
	.byte		        Bn3 
	.byte	W96
@ 015   ----------------------------------------
	.byte	W72
	.byte		EOT   , An3 
	.byte		        As3 
	.byte		        Bn3 
	.byte	W24
@ 016   ----------------------------------------
	.byte	W96
@ 017   ----------------------------------------
	.byte	W96
@ 018   ----------------------------------------
	.byte	W96
@ 019   ----------------------------------------
	.byte	W96
@ 020   ----------------------------------------
	.byte	W96
@ 021   ----------------------------------------
	.byte	W96
@ 022   ----------------------------------------
	.byte	W96
@ 023   ----------------------------------------
	.byte	W96
@ 024   ----------------------------------------
	.byte	W96
@ 025   ----------------------------------------
	.byte	W96
@ 026   ----------------------------------------
	.byte	W96
@ 027   ----------------------------------------
	.byte	W96
@ 028   ----------------------------------------
	.byte	W96
@ 029   ----------------------------------------
	.byte	W96
@ 030   ----------------------------------------
	.byte	W96
@ 031   ----------------------------------------
	.byte	W96
@ 032   ----------------------------------------
	.byte	W96
@ 033   ----------------------------------------
	.byte	W96
@ 034   ----------------------------------------
	.byte	W96
@ 035   ----------------------------------------
	.byte	W96
@ 036   ----------------------------------------
	.byte	W96
@ 037   ----------------------------------------
	.byte	W96
@ 038   ----------------------------------------
	.byte	W96
@ 039   ----------------------------------------
	.byte	W96
@ 040   ----------------------------------------
	.byte	W96
@ 041   ----------------------------------------
	.byte	W96
@ 042   ----------------------------------------
	.byte	W96
@ 043   ----------------------------------------
	.byte	W96
@ 044   ----------------------------------------
	.byte	W96
@ 045   ----------------------------------------
	.byte	W96
@ 046   ----------------------------------------
	.byte	W96
@ 047   ----------------------------------------
	.byte		N96   , An3 
	.byte	W48
	.byte		N48   , As3 
	.byte	W48
@ 048   ----------------------------------------
	.byte	W96
@ 049   ----------------------------------------
	.byte	W96
@ 050   ----------------------------------------
	.byte	W96
@ 051   ----------------------------------------
	.byte	W96
@ 052   ----------------------------------------
	.byte	W96
@ 053   ----------------------------------------
	.byte	W96
@ 054   ----------------------------------------
	.byte	W96
@ 055   ----------------------------------------
	.byte		N66   , An3 
	.byte	W48
	.byte		N42   , Gn3 
	.byte		N42   , Gs3 
	.byte	W24
	.byte		N18   , Fn3 
	.byte		N18   , Fs3 
	.byte	W24
@ 056   ----------------------------------------
	.byte	W96
@ 057   ----------------------------------------
	.byte	W96
@ 058   ----------------------------------------
	.byte	W96
@ 059   ----------------------------------------
	.byte	W96
@ 060   ----------------------------------------
	.byte	W96
@ 061   ----------------------------------------
	.byte	W96
@ 062   ----------------------------------------
	.byte	W96
@ 063   ----------------------------------------
	.byte	W96
@ 064   ----------------------------------------
	.byte	W96
@ 065   ----------------------------------------
	.byte	W96
@ 066   ----------------------------------------
	.byte	W96
@ 067   ----------------------------------------
	.byte	W96
@ 068   ----------------------------------------
	.byte	W96
@ 069   ----------------------------------------
	.byte	W96
@ 070   ----------------------------------------
	.byte	W96
@ 071   ----------------------------------------
	.byte	W96
@ 072   ----------------------------------------
	.byte	W96
@ 073   ----------------------------------------
	.byte	W96
@ 074   ----------------------------------------
	.byte	W96
@ 075   ----------------------------------------
	.byte	W96
@ 076   ----------------------------------------
	.byte	W96
@ 077   ----------------------------------------
	.byte	W96
@ 078   ----------------------------------------
	.byte	W96
@ 079   ----------------------------------------
	.byte	W96
@ 080   ----------------------------------------
	.byte	W96
@ 081   ----------------------------------------
	.byte	W96
@ 082   ----------------------------------------
	.byte	W96
@ 083   ----------------------------------------
	.byte	W96
@ 084   ----------------------------------------
	.byte	W96
@ 085   ----------------------------------------
	.byte	W96
@ 086   ----------------------------------------
	.byte		TIE   , An3 
	.byte	W96
@ 087   ----------------------------------------
	.byte	W96
	.byte		EOT   
@ 088   ----------------------------------------
	.byte	FINE

@**************** Track 13 (Midi-Chn.14) ****************@

mus_pkmn_sv_vs_penny_13:
	.byte	KEYSH , mus_pkmn_sv_vs_penny_key+0
@ 000   ----------------------------------------
	.byte		VOICE , 76 @ 85 @ Square
	.byte		VOL   , 127*mus_pkmn_sv_vs_penny_mvl/mxv
	.byte	W96
@ 001   ----------------------------------------
mus_pkmn_sv_vs_penny_13_001:
	.byte	W12
	.byte		N12   , Gs1 , v064
	.byte	W12
	.byte		        An1 
	.byte	W12
	.byte		        Fn1 
	.byte	W12
	.byte		        En1 
	.byte	W12
	.byte		N12   
	.byte	W12
	.byte		N12   
	.byte	W24
	.byte	PEND
@ 002   ----------------------------------------
	.byte	W96
@ 003   ----------------------------------------
	.byte	PATT
	 .word	mus_pkmn_sv_vs_penny_13_001
@ 004   ----------------------------------------
	.byte	W96
@ 005   ----------------------------------------
	.byte	PATT
	 .word	mus_pkmn_sv_vs_penny_13_001
@ 006   ----------------------------------------
	.byte	W96
@ 007   ----------------------------------------
	.byte	PATT
	 .word	mus_pkmn_sv_vs_penny_13_001
@ 008   ----------------------------------------
	.byte	W96
@ 009   ----------------------------------------
	.byte	W96
@ 010   ----------------------------------------
	.byte	W96
@ 011   ----------------------------------------
	.byte	W96
@ 012   ----------------------------------------
	.byte	W96
@ 013   ----------------------------------------
	.byte	W96
@ 014   ----------------------------------------
	.byte	W96
@ 015   ----------------------------------------
	.byte	W96
@ 016   ----------------------------------------
	.byte	W96
@ 017   ----------------------------------------
	.byte	W96
@ 018   ----------------------------------------
	.byte	W96
@ 019   ----------------------------------------
	.byte	W96
@ 020   ----------------------------------------
	.byte	W96
@ 021   ----------------------------------------
	.byte	W96
@ 022   ----------------------------------------
	.byte	W96
@ 023   ----------------------------------------
	.byte	W24
	.byte		N24   , AsM1, v064
	.byte		N24   , Gn1 
	.byte	W24
	.byte		        Fs0 
	.byte		N24   , Ds2 
	.byte	W24
	.byte		        AsM1
	.byte		N24   , Gn1 
	.byte	W24
@ 024   ----------------------------------------
	.byte	FINE

@**************** Track 14 (Midi-Chn.10) ****************@

mus_pkmn_sv_vs_penny_14:
	.byte	KEYSH , mus_pkmn_sv_vs_penny_key+0
@ 000   ----------------------------------------
	.byte		VOICE , 0 @ Drum
	.byte		VOL   , 100*mus_pkmn_sv_vs_penny_mvl/mxv
	.byte		N48   , Cs2 , v064
	.byte		N06   , Ds2 
	.byte	W06
	.byte		N06   
	.byte	W06
	.byte		N06   
	.byte	W12
	.byte		N06   
	.byte	W06
	.byte		N06   
	.byte	W06
	.byte		N06   
	.byte	W12
	.byte		N06   
	.byte	W06
	.byte		N06   
	.byte	W06
	.byte		N06   
	.byte	W12
	.byte		N06   
	.byte	W06
	.byte		N06   
	.byte	W06
	.byte		N06   
	.byte	W12
@ 001   ----------------------------------------
mus_pkmn_sv_vs_penny_14_001:
	.byte		N06   , Ds2 , v064
	.byte	W06
	.byte		N06   
	.byte	W06
	.byte		N06   
	.byte	W12
	.byte		N06   
	.byte	W06
	.byte		N06   
	.byte	W06
	.byte		N06   
	.byte	W12
	.byte		N06   
	.byte	W06
	.byte		N06   
	.byte	W06
	.byte		N06   
	.byte	W12
	.byte		N06   
	.byte	W06
	.byte		N06   
	.byte	W06
	.byte		N06   
	.byte	W12
	.byte	PEND
@ 002   ----------------------------------------
	.byte	PATT
	 .word	mus_pkmn_sv_vs_penny_14_001
@ 003   ----------------------------------------
	.byte	PATT
	 .word	mus_pkmn_sv_vs_penny_14_001
@ 004   ----------------------------------------
	.byte	PATT
	 .word	mus_pkmn_sv_vs_penny_14_001
@ 005   ----------------------------------------
	.byte	PATT
	 .word	mus_pkmn_sv_vs_penny_14_001
@ 006   ----------------------------------------
	.byte	PATT
	 .word	mus_pkmn_sv_vs_penny_14_001
@ 007   ----------------------------------------
	.byte	PATT
	 .word	mus_pkmn_sv_vs_penny_14_001
@ 008   ----------------------------------------
	.byte		N09   , En1 , v064
	.byte		N09   , As1 
	.byte		N48   , Cs2 
	.byte		N06   , Ds2 
	.byte	W06
	.byte		N06   
	.byte	W06
	.byte		N06   
	.byte	W12
	.byte		N09   , En1 
	.byte		N09   , As1 
	.byte		N06   , Ds2 
	.byte	W06
	.byte		N06   
	.byte	W06
	.byte		N06   
	.byte	W12
	.byte		N09   , En1 
	.byte		N09   , As1 
	.byte		N06   , Ds2 
	.byte	W06
	.byte		N06   
	.byte	W06
	.byte		N06   
	.byte	W12
	.byte		N09   , En1 
	.byte		N09   , As1 
	.byte		N06   , Ds2 
	.byte	W06
	.byte		N06   
	.byte	W06
	.byte		N06   
	.byte	W12
@ 009   ----------------------------------------
mus_pkmn_sv_vs_penny_14_009:
	.byte		N09   , En1 , v064
	.byte		N09   , As1 
	.byte		N06   , Ds2 
	.byte	W06
	.byte		N06   
	.byte	W06
	.byte		N06   
	.byte	W12
	.byte		N09   , En1 
	.byte		N09   , As1 
	.byte		N06   , Ds2 
	.byte	W06
	.byte		N06   
	.byte	W06
	.byte		N06   
	.byte	W12
	.byte		N09   , En1 
	.byte		N09   , As1 
	.byte		N06   , Ds2 
	.byte	W06
	.byte		N06   
	.byte	W06
	.byte		N06   
	.byte	W12
	.byte		N09   , En1 
	.byte		N09   , As1 
	.byte		N06   , Ds2 
	.byte	W06
	.byte		N06   
	.byte	W06
	.byte		N06   
	.byte	W12
	.byte	PEND
@ 010   ----------------------------------------
	.byte	PATT
	 .word	mus_pkmn_sv_vs_penny_14_009
@ 011   ----------------------------------------
	.byte	PATT
	 .word	mus_pkmn_sv_vs_penny_14_009
@ 012   ----------------------------------------
mus_pkmn_sv_vs_penny_14_012:
	.byte		N09   , En1 , v064
	.byte		N09   , As1 
	.byte		N06   , Ds2 
	.byte	W06
	.byte		N06   
	.byte	W06
	.byte		N09   , En1 
	.byte		N09   , As1 
	.byte		N06   , Ds2 
	.byte	W12
	.byte		N09   , En1 
	.byte		N09   , As1 
	.byte		N06   , Ds2 
	.byte	W06
	.byte		N06   
	.byte	W06
	.byte		N09   , En1 
	.byte		N09   , As1 
	.byte		N06   , Ds2 
	.byte	W12
	.byte		N09   , En1 
	.byte		N09   , As1 
	.byte		N06   , Ds2 
	.byte	W06
	.byte		N06   
	.byte	W06
	.byte		N09   , En1 
	.byte		N09   , As1 
	.byte		N06   , Ds2 
	.byte	W12
	.byte		N09   , En1 
	.byte		N09   , As1 
	.byte		N06   , Ds2 
	.byte	W06
	.byte		N06   
	.byte	W06
	.byte		N09   , En1 
	.byte		N09   , As1 
	.byte		N06   , Ds2 
	.byte	W12
	.byte	PEND
@ 013   ----------------------------------------
	.byte	PATT
	 .word	mus_pkmn_sv_vs_penny_14_012
@ 014   ----------------------------------------
	.byte		N06   , Cn0 , v048
	.byte		N06   , En1 , v064
	.byte		N06   , As1 
	.byte		N06   , Ds2 
	.byte	W06
	.byte		        Cn0 , v048
	.byte		N06   , En1 , v064
	.byte		N06   , As1 
	.byte		N06   , Ds2 
	.byte	W06
	.byte		        Cn0 , v048
	.byte		N06   , En1 , v064
	.byte		N06   , As1 
	.byte		N06   , Ds2 
	.byte	W06
	.byte		        Cn0 , v048
	.byte		N06   , En1 , v064
	.byte		N06   , As1 
	.byte	W06
	.byte		        Cn0 , v048
	.byte		N06   , En1 , v064
	.byte		N06   , As1 
	.byte		N06   , Ds2 
	.byte	W06
	.byte		        Cn0 , v048
	.byte		N06   , En1 , v064
	.byte		N06   , As1 
	.byte		N06   , Ds2 
	.byte	W06
	.byte		        Cn0 , v048
	.byte		N06   , En1 , v064
	.byte		N06   , As1 
	.byte		N06   , Ds2 
	.byte	W06
	.byte		        Cn0 , v048
	.byte		N06   , En1 , v064
	.byte		N06   , As1 
	.byte	W06
	.byte		        Cn0 , v048
	.byte		N06   , En1 , v064
	.byte		N06   , As1 
	.byte		N06   , Ds2 
	.byte	W06
	.byte		        Cn0 , v048
	.byte		N06   , En1 , v064
	.byte		N06   , As1 
	.byte		N06   , Ds2 
	.byte	W06
	.byte		        Cn0 , v048
	.byte		N06   , En1 , v064
	.byte		N06   , As1 
	.byte		N06   , Ds2 
	.byte	W06
	.byte		        Cn0 , v048
	.byte		N06   , En1 , v064
	.byte		N06   , As1 
	.byte	W06
	.byte		        Cn0 , v048
	.byte		N06   , En1 , v064
	.byte		N06   , As1 
	.byte		N06   , Ds2 
	.byte	W06
	.byte		        Cn0 , v048
	.byte		N06   , En1 , v064
	.byte		N06   , As1 
	.byte		N06   , Ds2 
	.byte	W06
	.byte		        Cn0 , v048
	.byte		N06   , En1 , v064
	.byte		N06   , As1 
	.byte		N06   , Ds2 
	.byte	W06
	.byte		        Cn0 , v048
	.byte		N06   , En1 , v064
	.byte		N06   , As1 
	.byte	W06
@ 015   ----------------------------------------
	.byte		N03   , Cn0 , v048
	.byte		N03   , En1 , v064
	.byte		N03   , As1 
	.byte		N06   , Ds2 
	.byte	W03
	.byte		N03   , Cn0 , v048
	.byte		N03   , En1 , v064
	.byte		N03   , As1 
	.byte	W03
	.byte		        Cn0 , v048
	.byte		N03   , En1 , v064
	.byte		N03   , As1 
	.byte		N06   , Ds2 
	.byte	W03
	.byte		N03   , Cn0 , v048
	.byte		N03   , En1 , v064
	.byte		N03   , As1 
	.byte	W03
	.byte		        Cn0 , v048
	.byte		N03   , En1 , v064
	.byte		N03   , As1 
	.byte		N06   , Ds2 
	.byte	W03
	.byte		N03   , Cn0 , v048
	.byte		N03   , En1 , v064
	.byte		N03   , As1 
	.byte	W03
	.byte		        Cn0 , v048
	.byte		N03   , En1 , v064
	.byte		N03   , As1 
	.byte	W03
	.byte		        Cn0 , v048
	.byte		N03   , En1 , v064
	.byte		N03   , As1 
	.byte	W03
	.byte		        Cn0 , v048
	.byte		N03   , En1 , v064
	.byte		N03   , As1 
	.byte		N06   , Ds2 
	.byte	W03
	.byte		N03   , Cn0 , v048
	.byte		N03   , En1 , v064
	.byte		N03   , As1 
	.byte	W03
	.byte		        Cn0 , v048
	.byte		N03   , En1 , v064
	.byte		N03   , As1 
	.byte		N06   , Ds2 
	.byte	W03
	.byte		N03   , Cn0 , v048
	.byte		N03   , En1 , v064
	.byte		N03   , As1 
	.byte	W03
	.byte		        Cn0 , v048
	.byte		N03   , En1 , v064
	.byte		N03   , As1 
	.byte		N06   , Ds2 
	.byte	W03
	.byte		N03   , Cn0 , v048
	.byte		N03   , En1 , v064
	.byte		N03   , As1 
	.byte	W03
	.byte		        Cn0 , v048
	.byte		N03   , En1 , v064
	.byte		N03   , As1 
	.byte	W03
	.byte		        Cn0 , v048
	.byte		N03   , En1 , v064
	.byte		N03   , As1 
	.byte	W03
	.byte		        Cn0 , v048
	.byte		N03   , En1 , v064
	.byte		N03   , As1 
	.byte		N06   , Ds2 
	.byte	W03
	.byte		N03   , Cn0 , v048
	.byte		N03   , En1 , v064
	.byte		N03   , As1 
	.byte	W03
	.byte		        Cn0 , v048
	.byte		N03   , En1 , v064
	.byte		N03   , As1 
	.byte		N06   , Ds2 
	.byte	W03
	.byte		N03   , Cn0 , v048
	.byte		N03   , En1 , v064
	.byte		N03   , As1 
	.byte	W03
	.byte		        Cn0 , v048
	.byte		N03   , En1 , v064
	.byte		N03   , As1 
	.byte		N06   , Ds2 
	.byte	W03
	.byte		N03   , Cn0 , v048
	.byte		N03   , En1 , v064
	.byte		N03   , As1 
	.byte	W03
	.byte		        Cn0 , v048
	.byte		N03   , En1 , v064
	.byte		N03   , As1 
	.byte	W03
	.byte		        Cn0 , v048
	.byte		N03   , En1 , v064
	.byte		N03   , As1 
	.byte	W03
	.byte		N15   , Cs1 
	.byte		N15   , Ds1 
	.byte	W24
@ 016   ----------------------------------------
	.byte		N48   , Cs2 
	.byte		N06   , Ds2 
	.byte	W06
	.byte		N06   
	.byte	W06
	.byte		N06   
	.byte	W12
	.byte		N06   
	.byte	W06
	.byte		N06   
	.byte	W06
	.byte		N06   
	.byte	W12
	.byte		N06   
	.byte	W06
	.byte		N06   
	.byte	W06
	.byte		N06   
	.byte	W12
	.byte		        En1 
	.byte		N06   , Ds2 
	.byte	W06
	.byte		N06   
	.byte	W06
	.byte		N06   
	.byte	W12
@ 017   ----------------------------------------
mus_pkmn_sv_vs_penny_14_017:
	.byte		N06   , Ds2 , v064
	.byte	W06
	.byte		N06   
	.byte	W06
	.byte		N06   
	.byte	W12
	.byte		        En1 
	.byte		N06   , Ds2 
	.byte	W06
	.byte		N06   
	.byte	W06
	.byte		N06   
	.byte	W12
	.byte		N06   
	.byte	W06
	.byte		N06   
	.byte	W06
	.byte		N06   
	.byte	W12
	.byte		        En1 
	.byte		N06   , Ds2 
	.byte	W06
	.byte		N06   
	.byte	W06
	.byte		N06   
	.byte	W12
	.byte	PEND
@ 018   ----------------------------------------
	.byte	PATT
	 .word	mus_pkmn_sv_vs_penny_14_017
@ 019   ----------------------------------------
	.byte	PATT
	 .word	mus_pkmn_sv_vs_penny_14_017
@ 020   ----------------------------------------
	.byte	PATT
	 .word	mus_pkmn_sv_vs_penny_14_017
@ 021   ----------------------------------------
	.byte	PATT
	 .word	mus_pkmn_sv_vs_penny_14_017
@ 022   ----------------------------------------
	.byte	PATT
	 .word	mus_pkmn_sv_vs_penny_14_017
@ 023   ----------------------------------------
	.byte	W96
@ 024   ----------------------------------------
	.byte	PATT
	 .word	mus_pkmn_sv_vs_penny_14_017
@ 025   ----------------------------------------
	.byte	PATT
	 .word	mus_pkmn_sv_vs_penny_14_017
@ 026   ----------------------------------------
	.byte	PATT
	 .word	mus_pkmn_sv_vs_penny_14_017
@ 027   ----------------------------------------
	.byte	PATT
	 .word	mus_pkmn_sv_vs_penny_14_017
@ 028   ----------------------------------------
	.byte		N48   , Bn2 , v064
	.byte	W24
	.byte		N06   , En1 
	.byte	W48
	.byte		N06   
	.byte	W24
@ 029   ----------------------------------------
	.byte		N48   , An2 
	.byte	W24
	.byte		N06   , En1 
	.byte	W48
	.byte		N06   
	.byte	W24
@ 030   ----------------------------------------
mus_pkmn_sv_vs_penny_14_030:
	.byte		N06   , En1 , v064
	.byte		N48   , Cs2 
	.byte		N06   , Ds2 
	.byte	W06
	.byte		N06   
	.byte	W06
	.byte		N06   
	.byte	W12
	.byte		        En1 
	.byte		N06   , Ds2 
	.byte	W06
	.byte		N06   
	.byte	W06
	.byte		N06   
	.byte	W12
	.byte		        En1 
	.byte		N06   , Ds2 
	.byte	W06
	.byte		N06   
	.byte	W06
	.byte		N06   
	.byte	W12
	.byte		        En1 
	.byte		N06   , Ds2 
	.byte	W06
	.byte		N06   
	.byte	W06
	.byte		N06   
	.byte	W12
	.byte	PEND
@ 031   ----------------------------------------
	.byte		        En1 
	.byte		N06   , Ds2 
	.byte	W06
	.byte		N06   
	.byte	W06
	.byte		        En1 
	.byte		N06   , Ds2 
	.byte	W12
	.byte		        En1 
	.byte		N06   , Ds2 
	.byte	W06
	.byte		N06   
	.byte	W06
	.byte		N06   
	.byte	W12
	.byte		        En1 
	.byte		N06   , Ds2 
	.byte	W06
	.byte		N06   
	.byte	W06
	.byte		        En1 
	.byte		N06   , Ds2 
	.byte	W12
	.byte		        En1 
	.byte		N06   , Ds2 
	.byte	W06
	.byte		        En1 
	.byte		N06   , Ds2 
	.byte	W06
	.byte		N06   
	.byte	W06
	.byte		        En1 
	.byte	W06
@ 032   ----------------------------------------
mus_pkmn_sv_vs_penny_14_032:
	.byte		N48   , Cs2 , v064
	.byte		N06   , Ds2 
	.byte	W06
	.byte		N06   
	.byte	W06
	.byte		N06   
	.byte	W12
	.byte		        En1 
	.byte		N06   , Ds2 
	.byte	W06
	.byte		N06   
	.byte	W06
	.byte		N06   
	.byte	W12
	.byte		N06   
	.byte	W06
	.byte		N06   
	.byte	W06
	.byte		N06   
	.byte	W12
	.byte		        En1 
	.byte		N06   , Ds2 
	.byte	W06
	.byte		N06   
	.byte	W06
	.byte		N06   
	.byte	W12
	.byte	PEND
@ 033   ----------------------------------------
	.byte	PATT
	 .word	mus_pkmn_sv_vs_penny_14_017
@ 034   ----------------------------------------
	.byte	PATT
	 .word	mus_pkmn_sv_vs_penny_14_017
@ 035   ----------------------------------------
mus_pkmn_sv_vs_penny_14_035:
	.byte		N06   , Ds2 , v064
	.byte	W06
	.byte		N06   
	.byte	W06
	.byte		N06   
	.byte	W12
	.byte		        En1 
	.byte		N06   , Ds2 
	.byte	W06
	.byte		N06   
	.byte	W06
	.byte		N06   
	.byte	W12
	.byte		N06   
	.byte	W06
	.byte		N06   
	.byte	W06
	.byte		N06   
	.byte	W12
	.byte		N03   , En1 
	.byte		N06   , Ds2 
	.byte	W06
	.byte		N03   , En1 
	.byte		N06   , Ds2 
	.byte	W06
	.byte		N03   , En1 
	.byte		N06   , Ds2 
	.byte	W12
	.byte	PEND
@ 036   ----------------------------------------
	.byte	PATT
	 .word	mus_pkmn_sv_vs_penny_14_032
@ 037   ----------------------------------------
	.byte	PATT
	 .word	mus_pkmn_sv_vs_penny_14_017
@ 038   ----------------------------------------
	.byte	PATT
	 .word	mus_pkmn_sv_vs_penny_14_017
@ 039   ----------------------------------------
	.byte		N06   , Ds2 , v064
	.byte	W06
	.byte		N06   
	.byte	W06
	.byte		N06   
	.byte	W12
	.byte		        En1 
	.byte		N06   , Ds2 
	.byte	W06
	.byte		N06   
	.byte	W06
	.byte		        En1 
	.byte		N06   , Ds2 
	.byte	W12
	.byte		        En1 
	.byte		N06   , Ds2 
	.byte	W06
	.byte		N06   
	.byte	W06
	.byte		        En1 
	.byte		N06   , Ds2 
	.byte	W12
	.byte		        En1 
	.byte		N06   , Ds2 
	.byte	W06
	.byte		N06   
	.byte	W06
	.byte		N06   
	.byte	W12
@ 040   ----------------------------------------
	.byte	PATT
	 .word	mus_pkmn_sv_vs_penny_14_032
@ 041   ----------------------------------------
mus_pkmn_sv_vs_penny_14_041:
	.byte		N06   , Ds2 , v064
	.byte	W06
	.byte		N06   
	.byte	W06
	.byte		N06   
	.byte	W12
	.byte		        En1 
	.byte		N06   , Ds2 
	.byte	W06
	.byte		N06   
	.byte	W06
	.byte		N06   
	.byte	W12
	.byte		N06   
	.byte	W06
	.byte		N06   
	.byte	W06
	.byte		N06   
	.byte	W12
	.byte		N03   , En1 
	.byte		N06   , Ds2 
	.byte	W06
	.byte		N03   , En1 
	.byte		N06   , Ds2 
	.byte	W06
	.byte		N06   
	.byte	W12
	.byte	PEND
@ 042   ----------------------------------------
	.byte	PATT
	 .word	mus_pkmn_sv_vs_penny_14_017
@ 043   ----------------------------------------
	.byte	PATT
	 .word	mus_pkmn_sv_vs_penny_14_041
@ 044   ----------------------------------------
	.byte	PATT
	 .word	mus_pkmn_sv_vs_penny_14_032
@ 045   ----------------------------------------
	.byte	PATT
	 .word	mus_pkmn_sv_vs_penny_14_035
@ 046   ----------------------------------------
	.byte		N06   , Ds2 , v064
	.byte		N48   , An2 
	.byte	W06
	.byte		N06   , Ds2 
	.byte	W06
	.byte		N06   
	.byte	W12
	.byte		        En1 
	.byte		N06   , Ds2 
	.byte	W06
	.byte		N06   
	.byte	W06
	.byte		N06   
	.byte	W12
	.byte		        En1 
	.byte		N06   , Ds2 
	.byte	W06
	.byte		N06   
	.byte	W06
	.byte		N06   
	.byte	W12
	.byte		        En1 
	.byte		N06   , Ds2 
	.byte	W06
	.byte		N06   
	.byte	W06
	.byte		N06   
	.byte	W12
@ 047   ----------------------------------------
	.byte		        En1 
	.byte		N06   , Ds2 
	.byte		N48   , Bn2 
	.byte	W06
	.byte		N06   , Ds2 
	.byte	W06
	.byte		        En1 
	.byte		N06   , Ds2 
	.byte	W12
	.byte		        En1 
	.byte		N06   , Ds2 
	.byte	W06
	.byte		N06   
	.byte	W06
	.byte		        En1 
	.byte		N06   , Ds2 
	.byte	W12
	.byte		N03   , En1 
	.byte		N06   , Ds2 
	.byte	W06
	.byte		N03   , En1 
	.byte		N06   , Ds2 
	.byte	W06
	.byte		N06   
	.byte	W12
	.byte		N03   , En1 
	.byte		N06   , Ds2 
	.byte	W03
	.byte		N03   , En1 
	.byte	W03
	.byte		N03   
	.byte		N06   , Ds2 
	.byte	W03
	.byte		N03   , En1 
	.byte	W03
	.byte		N03   
	.byte		N06   , Ds2 
	.byte	W03
	.byte		N03   , En1 
	.byte	W03
	.byte		N03   
	.byte	W03
	.byte		N03   
	.byte	W03
@ 048   ----------------------------------------
	.byte	PATT
	 .word	mus_pkmn_sv_vs_penny_14_017
@ 049   ----------------------------------------
	.byte	PATT
	 .word	mus_pkmn_sv_vs_penny_14_017
@ 050   ----------------------------------------
	.byte	PATT
	 .word	mus_pkmn_sv_vs_penny_14_017
@ 051   ----------------------------------------
	.byte	PATT
	 .word	mus_pkmn_sv_vs_penny_14_017
@ 052   ----------------------------------------
	.byte	PATT
	 .word	mus_pkmn_sv_vs_penny_14_017
@ 053   ----------------------------------------
	.byte	PATT
	 .word	mus_pkmn_sv_vs_penny_14_017
@ 054   ----------------------------------------
	.byte	PATT
	 .word	mus_pkmn_sv_vs_penny_14_017
@ 055   ----------------------------------------
	.byte		N06   , Ds2 , v064
	.byte	W06
	.byte		N06   
	.byte	W06
	.byte		N06   
	.byte	W12
	.byte		        En1 
	.byte		N06   , Ds2 
	.byte	W06
	.byte		N06   
	.byte	W06
	.byte		N06   
	.byte	W12
	.byte		        En1 
	.byte		N06   , Ds2 
	.byte	W06
	.byte		N06   
	.byte	W06
	.byte		N06   
	.byte	W12
	.byte		        En1 
	.byte		N06   , Ds2 
	.byte	W06
	.byte		N06   
	.byte	W06
	.byte		N06   
	.byte	W12
@ 056   ----------------------------------------
	.byte	PATT
	 .word	mus_pkmn_sv_vs_penny_14_017
@ 057   ----------------------------------------
	.byte	PATT
	 .word	mus_pkmn_sv_vs_penny_14_017
@ 058   ----------------------------------------
	.byte	PATT
	 .word	mus_pkmn_sv_vs_penny_14_017
@ 059   ----------------------------------------
	.byte	PATT
	 .word	mus_pkmn_sv_vs_penny_14_017
@ 060   ----------------------------------------
	.byte		N06   , Cn0 , v048
	.byte		N06   , En1 , v064
	.byte		N06   , Ds2 
	.byte		N48   , Bn2 
	.byte	W06
	.byte		N06   , Ds2 
	.byte	W06
	.byte		N06   
	.byte	W12
	.byte		N06   
	.byte	W06
	.byte		N06   
	.byte	W06
	.byte		N06   
	.byte	W12
	.byte		        Cn0 , v048
	.byte		N06   , En1 , v064
	.byte		N06   , Ds2 
	.byte	W06
	.byte		N06   
	.byte	W06
	.byte		N06   
	.byte	W12
	.byte		N06   
	.byte	W06
	.byte		N06   
	.byte	W06
	.byte		N06   
	.byte	W12
@ 061   ----------------------------------------
	.byte		        Cn0 , v048
	.byte		N06   , En1 , v064
	.byte		N06   , Ds2 
	.byte		N48   , An2 
	.byte	W06
	.byte		N06   , Ds2 
	.byte	W06
	.byte		N06   
	.byte	W12
	.byte		N06   
	.byte	W06
	.byte		N06   
	.byte	W06
	.byte		N06   
	.byte	W12
	.byte		        Cn0 , v048
	.byte		N06   , En1 , v064
	.byte		N06   , Ds2 
	.byte	W06
	.byte		N06   
	.byte	W06
	.byte		N06   
	.byte	W12
	.byte		N06   
	.byte	W06
	.byte		N06   
	.byte	W06
	.byte		N06   
	.byte	W12
@ 062   ----------------------------------------
	.byte		        Cn0 , v048
	.byte		N06   , Cn1 , v064
	.byte		N48   , Cs2 
	.byte		N06   , Ds2 
	.byte	W06
	.byte		N06   
	.byte	W06
	.byte		N06   
	.byte	W12
	.byte		        Cn0 , v048
	.byte		N06   , En1 , v064
	.byte		N06   , Ds2 
	.byte	W06
	.byte		N06   
	.byte	W06
	.byte		N06   
	.byte	W12
	.byte		        Cn0 , v048
	.byte		N06   , Cn1 , v064
	.byte		N06   , Ds2 
	.byte	W06
	.byte		N06   
	.byte	W06
	.byte		N06   
	.byte	W12
	.byte		        Cn0 , v048
	.byte		N06   , En1 , v064
	.byte		N06   , Ds2 
	.byte	W06
	.byte		N06   
	.byte	W06
	.byte		N06   
	.byte	W12
@ 063   ----------------------------------------
	.byte		N03   , En1 
	.byte		N06   , Ds2 
	.byte	W06
	.byte		N03   , En1 
	.byte		N06   , Ds2 
	.byte	W06
	.byte		N03   , En1 
	.byte		N06   , Ds2 
	.byte	W12
	.byte		N03   , En1 
	.byte		N06   , Ds2 
	.byte	W06
	.byte		N03   , En1 
	.byte		N06   , Ds2 
	.byte	W06
	.byte		N03   , En1 
	.byte		N06   , Ds2 
	.byte	W12
	.byte		N03   , En1 
	.byte		N06   , Ds2 
	.byte	W06
	.byte		N03   , En1 
	.byte		N06   , Ds2 
	.byte	W06
	.byte		N03   , En1 
	.byte		N06   , Ds2 
	.byte	W12
	.byte		N03   , En1 
	.byte		N06   , Ds2 
	.byte	W06
	.byte		N03   , En1 
	.byte		N06   , Ds2 
	.byte	W06
	.byte		N03   , En1 
	.byte		N06   , Ds2 
	.byte	W12
@ 064   ----------------------------------------
	.byte		        Ds1 
	.byte		N48   , Cs2 
	.byte		N06   , Ds2 
	.byte	W06
	.byte		N06   
	.byte	W06
	.byte		N06   
	.byte	W12
	.byte		        Ds1 
	.byte		N06   , En1 
	.byte		N06   , Ds2 
	.byte	W06
	.byte		N06   
	.byte	W06
	.byte		N06   
	.byte	W12
	.byte		        Cn1 
	.byte		N06   , Ds1 
	.byte		N06   , Ds2 
	.byte	W06
	.byte		N06   
	.byte	W06
	.byte		        En1 
	.byte		N06   , Ds2 
	.byte	W12
	.byte		        Ds1 
	.byte		N06   , Ds2 
	.byte	W06
	.byte		N06   
	.byte	W06
	.byte		N06   
	.byte	W12
@ 065   ----------------------------------------
mus_pkmn_sv_vs_penny_14_065:
	.byte		N06   , Ds1 , v064
	.byte		N06   , En1 
	.byte		N30   , Cs2 
	.byte		N06   , Ds2 
	.byte	W06
	.byte		N06   
	.byte	W06
	.byte		N06   
	.byte	W12
	.byte		        Ds1 
	.byte		N06   , Ds2 
	.byte	W06
	.byte		N06   
	.byte	W06
	.byte		        En1 
	.byte		N30   , Cs2 
	.byte		N06   , Ds2 
	.byte	W12
	.byte		N06   
	.byte	W06
	.byte		N06   
	.byte	W06
	.byte		        En1 
	.byte		N06   , Ds2 
	.byte	W12
	.byte		N06   
	.byte	W06
	.byte		N06   
	.byte	W06
	.byte		        Cn1 
	.byte		N06   , Ds1 
	.byte		N06   , Ds2 
	.byte	W12
	.byte	PEND
@ 066   ----------------------------------------
mus_pkmn_sv_vs_penny_14_066:
	.byte		N48   , Cs2 , v064
	.byte		N06   , Ds2 
	.byte	W06
	.byte		N06   
	.byte	W06
	.byte		N06   
	.byte	W12
	.byte		        Ds1 
	.byte		N06   , En1 
	.byte		N06   , Ds2 
	.byte	W06
	.byte		N06   
	.byte	W06
	.byte		N06   
	.byte	W12
	.byte		        Cn1 
	.byte		N06   , Ds1 
	.byte		N06   , Ds2 
	.byte	W06
	.byte		N06   
	.byte	W06
	.byte		        En1 
	.byte		N06   , Ds2 
	.byte	W12
	.byte		        Ds1 
	.byte		N06   , Ds2 
	.byte	W06
	.byte		N06   
	.byte	W06
	.byte		N06   
	.byte	W12
	.byte	PEND
@ 067   ----------------------------------------
	.byte	PATT
	 .word	mus_pkmn_sv_vs_penny_14_065
@ 068   ----------------------------------------
	.byte	PATT
	 .word	mus_pkmn_sv_vs_penny_14_066
@ 069   ----------------------------------------
	.byte	PATT
	 .word	mus_pkmn_sv_vs_penny_14_065
@ 070   ----------------------------------------
	.byte		N06   , Ds1 , v064
	.byte		N06   , En1 
	.byte		N30   , Cs2 
	.byte		N06   , Ds2 
	.byte	W06
	.byte		N06   
	.byte	W06
	.byte		        Ds1 
	.byte		N06   , En1 
	.byte		N06   , Ds2 
	.byte	W12
	.byte		        Ds1 
	.byte		N06   , En1 
	.byte		N06   , Ds2 
	.byte	W06
	.byte		N06   
	.byte	W06
	.byte		        En1 
	.byte		N06   , Ds2 
	.byte	W12
	.byte		        Ds1 
	.byte		N06   , En1 
	.byte		N30   , Cs2 
	.byte		N06   , Ds2 
	.byte	W06
	.byte		N06   
	.byte	W06
	.byte		        En1 
	.byte		N06   , Ds2 
	.byte	W12
	.byte		        Ds1 
	.byte		N06   , En1 
	.byte		N06   , Ds2 
	.byte	W06
	.byte		N06   
	.byte	W06
	.byte		        En1 
	.byte		N06   , Ds2 
	.byte	W12
@ 071   ----------------------------------------
	.byte		        Ds1 
	.byte		N03   , En1 
	.byte		N24   , Cs2 
	.byte		N06   , Ds2 
	.byte	W06
	.byte		N03   , En1 
	.byte		N06   , Ds2 
	.byte	W06
	.byte		        Ds1 
	.byte		N03   , En1 
	.byte		N06   , Ds2 
	.byte	W06
	.byte		N03   , En1 
	.byte	W06
	.byte		N06   , Ds1 
	.byte		N03   , En1 
	.byte		N24   , Cs2 
	.byte		N06   , Ds2 
	.byte	W06
	.byte		N03   , En1 
	.byte		N06   , Ds2 
	.byte	W06
	.byte		N03   , En1 
	.byte		N06   , Ds2 
	.byte	W06
	.byte		N03   , En1 
	.byte	W06
	.byte		N06   , Ds1 
	.byte		N03   , En1 
	.byte		N30   , Cs2 
	.byte		N06   , Ds2 
	.byte	W06
	.byte		N03   , En1 
	.byte		N06   , Ds2 
	.byte	W06
	.byte		N03   , En1 
	.byte		N06   , Ds2 
	.byte	W06
	.byte		N03   , En1 
	.byte	W06
	.byte		N06   , Ds1 
	.byte		N03   , En1 
	.byte		N06   , Ds2 
	.byte	W06
	.byte		N03   , En1 
	.byte		N06   , Ds2 
	.byte	W06
	.byte		N03   , En1 
	.byte		N06   , Ds2 
	.byte	W12
@ 072   ----------------------------------------
mus_pkmn_sv_vs_penny_14_072:
	.byte		N06   , En1 , v064
	.byte		N06   , Ds2 
	.byte	W06
	.byte		N06   
	.byte	W06
	.byte		N06   
	.byte	W12
	.byte		        En1 
	.byte		N06   , Ds2 
	.byte	W06
	.byte		N06   
	.byte	W06
	.byte		N06   
	.byte	W12
	.byte		        En1 
	.byte		N06   , Ds2 
	.byte	W06
	.byte		N06   
	.byte	W06
	.byte		N06   
	.byte	W12
	.byte		        En1 
	.byte		N06   , Ds2 
	.byte	W06
	.byte		N06   
	.byte	W06
	.byte		N06   
	.byte	W12
	.byte	PEND
@ 073   ----------------------------------------
	.byte	PATT
	 .word	mus_pkmn_sv_vs_penny_14_072
@ 074   ----------------------------------------
	.byte	PATT
	 .word	mus_pkmn_sv_vs_penny_14_030
@ 075   ----------------------------------------
	.byte	PATT
	 .word	mus_pkmn_sv_vs_penny_14_072
@ 076   ----------------------------------------
	.byte	PATT
	 .word	mus_pkmn_sv_vs_penny_14_030
@ 077   ----------------------------------------
	.byte	PATT
	 .word	mus_pkmn_sv_vs_penny_14_072
@ 078   ----------------------------------------
	.byte	PATT
	 .word	mus_pkmn_sv_vs_penny_14_030
@ 079   ----------------------------------------
	.byte	PATT
	 .word	mus_pkmn_sv_vs_penny_14_072
@ 080   ----------------------------------------
	.byte	PATT
	 .word	mus_pkmn_sv_vs_penny_14_030
@ 081   ----------------------------------------
	.byte	PATT
	 .word	mus_pkmn_sv_vs_penny_14_072
@ 082   ----------------------------------------
	.byte	PATT
	 .word	mus_pkmn_sv_vs_penny_14_030
@ 083   ----------------------------------------
	.byte	PATT
	 .word	mus_pkmn_sv_vs_penny_14_072
@ 084   ----------------------------------------
	.byte	PATT
	 .word	mus_pkmn_sv_vs_penny_14_030
@ 085   ----------------------------------------
	.byte	PATT
	 .word	mus_pkmn_sv_vs_penny_14_072
@ 086   ----------------------------------------
	.byte	PATT
	 .word	mus_pkmn_sv_vs_penny_14_030
@ 087   ----------------------------------------
	.byte		N06   , En1 , v064
	.byte		N06   , Ds2 
	.byte	W06
	.byte		N06   
	.byte	W06
	.byte		        En1 
	.byte		N06   , Ds2 
	.byte	W12
	.byte		        En1 
	.byte		N06   , Ds2 
	.byte	W06
	.byte		N06   
	.byte	W06
	.byte		        En1 
	.byte		N06   , Ds2 
	.byte	W12
	.byte		        En1 
	.byte		N06   , Ds2 
	.byte	W06
	.byte		N06   
	.byte	W06
	.byte		        En1 
	.byte		N06   , Ds2 
	.byte	W12
	.byte		        En1 
	.byte		N06   , Ds2 
	.byte	W06
	.byte		        En1 
	.byte		N06   , Ds2 
	.byte	W06
	.byte		        En1 
	.byte		N06   , Ds2 
	.byte	W06
	.byte		        En1 
	.byte	W06
@ 088   ----------------------------------------
	.byte	PATT
	 .word	mus_pkmn_sv_vs_penny_14_017
@ 089   ----------------------------------------
	.byte	PATT
	 .word	mus_pkmn_sv_vs_penny_14_017
@ 090   ----------------------------------------
	.byte	PATT
	 .word	mus_pkmn_sv_vs_penny_14_017
@ 091   ----------------------------------------
	.byte	PATT
	 .word	mus_pkmn_sv_vs_penny_14_017
@ 092   ----------------------------------------
	.byte	PATT
	 .word	mus_pkmn_sv_vs_penny_14_017
@ 093   ----------------------------------------
	.byte	PATT
	 .word	mus_pkmn_sv_vs_penny_14_017
@ 094   ----------------------------------------
	.byte	PATT
	 .word	mus_pkmn_sv_vs_penny_14_017
@ 095   ----------------------------------------
	.byte	PATT
	 .word	mus_pkmn_sv_vs_penny_14_017
@ 096   ----------------------------------------
	.byte	PATT
	 .word	mus_pkmn_sv_vs_penny_14_017
@ 097   ----------------------------------------
	.byte	PATT
	 .word	mus_pkmn_sv_vs_penny_14_017
@ 098   ----------------------------------------
	.byte		N06   , En1 , v064
	.byte		N06   , Ds2 
	.byte	W06
	.byte		N06   
	.byte	W06
	.byte		N06   
	.byte	W12
	.byte		N06   
	.byte	W06
	.byte		N06   
	.byte	W06
	.byte		        En1 
	.byte		N06   , Ds2 
	.byte	W12
	.byte		N06   
	.byte	W06
	.byte		N06   
	.byte	W06
	.byte		N06   
	.byte	W12
	.byte		        En1 
	.byte		N06   , Ds2 
	.byte	W06
	.byte		N06   
	.byte	W06
	.byte		N06   
	.byte	W12
@ 099   ----------------------------------------
	.byte		N06   
	.byte	W06
	.byte		N06   
	.byte	W06
	.byte		N06   
	.byte	W12
	.byte		N06   
	.byte	W06
	.byte		N06   
	.byte	W06
	.byte		N06   
	.byte	W12
	.byte		N06   
	.byte	W06
	.byte		N06   
	.byte	W06
	.byte		N06   
	.byte	W12
	.byte		        En1 
	.byte		N06   , Ds2 
	.byte	W06
	.byte		        En1 
	.byte		N06   , Ds2 
	.byte	W06
	.byte		        En1 
	.byte		N06   , Ds2 
	.byte	W06
	.byte		        En1 
	.byte	W06
@ 100   ----------------------------------------
	.byte	PATT
	 .word	mus_pkmn_sv_vs_penny_14_017
@ 101   ----------------------------------------
	.byte	PATT
	 .word	mus_pkmn_sv_vs_penny_14_017
@ 102   ----------------------------------------
	.byte	PATT
	 .word	mus_pkmn_sv_vs_penny_14_017
@ 103   ----------------------------------------
	.byte		N06   , En1 , v064
	.byte		N06   , Ds2 
	.byte	W06
	.byte		        En1 
	.byte		N06   , Ds2 
	.byte	W06
	.byte		        En1 
	.byte		N06   , Ds2 
	.byte	W06
	.byte		        En1 
	.byte	W06
	.byte		N06   
	.byte		N06   , Ds2 
	.byte	W06
	.byte		        En1 
	.byte		N06   , Ds2 
	.byte	W06
	.byte		        En1 
	.byte		N06   , Ds2 
	.byte	W06
	.byte		        En1 
	.byte	W06
	.byte		N06   
	.byte		N06   , Ds2 
	.byte	W06
	.byte		        En1 
	.byte		N06   , Ds2 
	.byte	W06
	.byte		        En1 
	.byte		N06   , Ds2 
	.byte	W06
	.byte		        En1 
	.byte	W06
	.byte		N06   
	.byte		N06   , Ds2 
	.byte	W06
	.byte		        En1 
	.byte		N06   , Ds2 
	.byte	W06
	.byte		        En1 
	.byte		N06   , Ds2 
	.byte	W06
	.byte		        En1 
	.byte	W06
@ 104   ----------------------------------------
	.byte	FINE

@**************** Track 15 (Midi-Chn.15) ****************@

mus_pkmn_sv_vs_penny_15:
	.byte	KEYSH , mus_pkmn_sv_vs_penny_key+0
@ 000   ----------------------------------------
	.byte		VOICE , 117 @ 81 @ Wave
	.byte		VOL   , 36*mus_pkmn_sv_vs_penny_mvl/mxv
	.byte	W96
@ 001   ----------------------------------------
	.byte	W96
@ 002   ----------------------------------------
	.byte	W96
@ 003   ----------------------------------------
	.byte	W96
@ 004   ----------------------------------------
	.byte	W96
@ 005   ----------------------------------------
	.byte	W96
@ 006   ----------------------------------------
	.byte	W96
@ 007   ----------------------------------------
	.byte	W96
@ 008   ----------------------------------------
	.byte	W96
@ 009   ----------------------------------------
	.byte	W96
@ 010   ----------------------------------------
	.byte	W96
@ 011   ----------------------------------------
	.byte	W96
@ 012   ----------------------------------------
	.byte	W96
@ 013   ----------------------------------------
	.byte	W96
@ 014   ----------------------------------------
	.byte	W96
@ 015   ----------------------------------------
	.byte	W96
@ 016   ----------------------------------------
	.byte	W96
@ 017   ----------------------------------------
	.byte	W96
@ 018   ----------------------------------------
	.byte	W96
@ 019   ----------------------------------------
	.byte	W96
@ 020   ----------------------------------------
	.byte	W96
@ 021   ----------------------------------------
	.byte	W96
@ 022   ----------------------------------------
	.byte	W96
@ 023   ----------------------------------------
	.byte	W96
@ 024   ----------------------------------------
	.byte	W96
@ 025   ----------------------------------------
	.byte	W96
@ 026   ----------------------------------------
	.byte	W96
@ 027   ----------------------------------------
	.byte	W96
@ 028   ----------------------------------------
	.byte	W96
@ 029   ----------------------------------------
	.byte	W96
@ 030   ----------------------------------------
	.byte	W96
@ 031   ----------------------------------------
	.byte	W96
@ 032   ----------------------------------------
mus_pkmn_sv_vs_penny_15_032:
	.byte		N06   , Gn3 , v064
	.byte	W12
	.byte		        Gn4 
	.byte	W12
	.byte		N06   
	.byte	W06
	.byte		N06   
	.byte	W06
	.byte		N06   
	.byte	W06
	.byte		N06   
	.byte	W06
	.byte		        Gn3 
	.byte	W12
	.byte		        Gn4 
	.byte	W06
	.byte		N06   
	.byte	W06
	.byte		        Gn3 
	.byte	W12
	.byte		        Gn4 
	.byte	W12
	.byte	PEND
@ 033   ----------------------------------------
mus_pkmn_sv_vs_penny_15_033:
	.byte		N06   , Gn4 , v064
	.byte	W06
	.byte		N06   
	.byte	W06
	.byte		N06   
	.byte	W06
	.byte		N06   
	.byte	W06
	.byte		N06   
	.byte	W06
	.byte		N06   
	.byte	W06
	.byte		N06   
	.byte	W06
	.byte		N06   
	.byte	W06
	.byte		        Gn3 
	.byte	W12
	.byte		        Gn4 
	.byte	W06
	.byte		N06   
	.byte	W06
	.byte		        Gn3 
	.byte	W12
	.byte		        Gn4 
	.byte	W06
	.byte		N06   
	.byte	W06
	.byte	PEND
@ 034   ----------------------------------------
	.byte	PATT
	 .word	mus_pkmn_sv_vs_penny_15_032
@ 035   ----------------------------------------
	.byte	PATT
	 .word	mus_pkmn_sv_vs_penny_15_033
@ 036   ----------------------------------------
	.byte	PATT
	 .word	mus_pkmn_sv_vs_penny_15_032
@ 037   ----------------------------------------
	.byte	PATT
	 .word	mus_pkmn_sv_vs_penny_15_033
@ 038   ----------------------------------------
mus_pkmn_sv_vs_penny_15_038:
	.byte		N06   , Fn4 , v064
	.byte	W12
	.byte		        As4 
	.byte	W12
	.byte		N06   
	.byte	W06
	.byte		N06   
	.byte	W06
	.byte		N06   
	.byte	W06
	.byte		N06   
	.byte	W06
	.byte		N06   
	.byte	W12
	.byte		        Fn4 
	.byte	W06
	.byte		        As4 
	.byte	W12
	.byte		        Fn4 
	.byte	W06
	.byte		        As4 
	.byte	W12
	.byte	PEND
@ 039   ----------------------------------------
	.byte	PATT
	 .word	mus_pkmn_sv_vs_penny_15_038
@ 040   ----------------------------------------
	.byte	PATT
	 .word	mus_pkmn_sv_vs_penny_15_032
@ 041   ----------------------------------------
	.byte	PATT
	 .word	mus_pkmn_sv_vs_penny_15_033
@ 042   ----------------------------------------
	.byte	PATT
	 .word	mus_pkmn_sv_vs_penny_15_032
@ 043   ----------------------------------------
	.byte	PATT
	 .word	mus_pkmn_sv_vs_penny_15_033
@ 044   ----------------------------------------
	.byte		N06   , Gs3 , v064
	.byte	W12
	.byte		        Gs4 
	.byte	W12
	.byte		N06   
	.byte	W06
	.byte		N06   
	.byte	W06
	.byte		N06   
	.byte	W06
	.byte		N06   
	.byte	W06
	.byte		        Gs3 
	.byte	W12
	.byte		        Gs4 
	.byte	W06
	.byte		N06   
	.byte	W06
	.byte		        Gs3 
	.byte	W12
	.byte		        Gs4 
	.byte	W12
@ 045   ----------------------------------------
	.byte		N06   
	.byte	W06
	.byte		N06   
	.byte	W06
	.byte		N06   
	.byte	W06
	.byte		N06   
	.byte	W06
	.byte		N06   
	.byte	W06
	.byte		N06   
	.byte	W06
	.byte		N06   
	.byte	W06
	.byte		N06   
	.byte	W06
	.byte		        Gs3 
	.byte	W12
	.byte		        Gs4 
	.byte	W06
	.byte		N06   
	.byte	W06
	.byte		        Gs3 
	.byte	W12
	.byte		        Gs4 
	.byte	W06
	.byte		N06   
	.byte	W06
@ 046   ----------------------------------------
	.byte		        Dn4 
	.byte	W12
	.byte		        Dn5 
	.byte	W12
	.byte		N06   
	.byte	W06
	.byte		N06   
	.byte	W06
	.byte		N06   
	.byte	W06
	.byte		N06   
	.byte	W06
	.byte		        Dn4 
	.byte	W12
	.byte		        Dn5 
	.byte	W06
	.byte		N06   
	.byte	W06
	.byte		        Dn4 
	.byte	W12
	.byte		        Dn5 
	.byte	W12
@ 047   ----------------------------------------
	.byte		N06   
	.byte	W06
	.byte		N06   
	.byte	W06
	.byte		N06   
	.byte	W06
	.byte		N06   
	.byte	W06
	.byte		N06   
	.byte	W06
	.byte		N06   
	.byte	W06
	.byte		N06   
	.byte	W06
	.byte		N06   
	.byte	W06
	.byte		        Dn4 
	.byte	W12
	.byte		        Dn5 
	.byte	W06
	.byte		N06   
	.byte	W06
	.byte		        Dn4 
	.byte	W12
	.byte		        Dn5 
	.byte	W06
	.byte		N06   
	.byte	W06
@ 048   ----------------------------------------
	.byte	W96
@ 049   ----------------------------------------
	.byte	W96
@ 050   ----------------------------------------
	.byte	W96
@ 051   ----------------------------------------
	.byte	W96
@ 052   ----------------------------------------
	.byte	W96
@ 053   ----------------------------------------
	.byte	W96
@ 054   ----------------------------------------
	.byte	W96
@ 055   ----------------------------------------
	.byte	W96
@ 056   ----------------------------------------
	.byte	W96
@ 057   ----------------------------------------
	.byte	W96
@ 058   ----------------------------------------
	.byte	W96
@ 059   ----------------------------------------
	.byte	W96
@ 060   ----------------------------------------
	.byte	W96
@ 061   ----------------------------------------
	.byte	W96
@ 062   ----------------------------------------
	.byte	W96
@ 063   ----------------------------------------
	.byte	W96
@ 064   ----------------------------------------
	.byte	W96
@ 065   ----------------------------------------
	.byte	W96
@ 066   ----------------------------------------
	.byte	W96
@ 067   ----------------------------------------
	.byte	W96
@ 068   ----------------------------------------
	.byte	W96
@ 069   ----------------------------------------
	.byte	W96
@ 070   ----------------------------------------
	.byte	W96
@ 071   ----------------------------------------
	.byte	W96
@ 072   ----------------------------------------
	.byte	W96
@ 073   ----------------------------------------
	.byte	W96
@ 074   ----------------------------------------
	.byte	W96
@ 075   ----------------------------------------
	.byte	W96
@ 076   ----------------------------------------
mus_pkmn_sv_vs_penny_15_076:
	.byte		N06   , Gn2 , v064
	.byte	W06
	.byte		N03   , Dn3 
	.byte	W03
	.byte		N06   , Gn3 
	.byte	W15
	.byte		        Gn2 
	.byte	W06
	.byte		N03   , Dn3 
	.byte	W03
	.byte		N06   , Gn3 
	.byte	W15
	.byte		        Gn2 
	.byte	W06
	.byte		N03   , Dn3 
	.byte	W03
	.byte		N06   , Gn3 
	.byte	W15
	.byte		        Gn2 
	.byte	W06
	.byte		N03   , Dn3 
	.byte	W03
	.byte		N06   , Gn3 
	.byte	W15
	.byte	PEND
@ 077   ----------------------------------------
	.byte	PATT
	 .word	mus_pkmn_sv_vs_penny_15_076
@ 078   ----------------------------------------
	.byte	PATT
	 .word	mus_pkmn_sv_vs_penny_15_076
@ 079   ----------------------------------------
	.byte	PATT
	 .word	mus_pkmn_sv_vs_penny_15_076
@ 080   ----------------------------------------
	.byte		N06   , Fn2 , v064
	.byte	W06
	.byte		N03   , Cn3 
	.byte	W03
	.byte		N06   , Fn3 
	.byte	W15
	.byte		        Fn2 
	.byte	W06
	.byte		N03   , Cn3 
	.byte	W03
	.byte		N06   , Fn3 
	.byte	W15
	.byte		        Fn2 
	.byte	W06
	.byte		N03   , Cn3 
	.byte	W03
	.byte		N06   , Fn3 
	.byte	W15
	.byte		        Fn2 
	.byte	W06
	.byte		N03   , Cn3 
	.byte	W03
	.byte		N06   , Fn3 
	.byte	W15
@ 081   ----------------------------------------
	.byte	W96
@ 082   ----------------------------------------
	.byte	W96
@ 083   ----------------------------------------
	.byte	W96
@ 084   ----------------------------------------
	.byte	PATT
	 .word	mus_pkmn_sv_vs_penny_15_076
@ 085   ----------------------------------------
	.byte	PATT
	 .word	mus_pkmn_sv_vs_penny_15_076
@ 086   ----------------------------------------
	.byte	PATT
	 .word	mus_pkmn_sv_vs_penny_15_076
@ 087   ----------------------------------------
	.byte		N06   , Gn2 , v064
	.byte	W06
	.byte		N03   , Dn3 
	.byte	W03
	.byte		N06   , Gn3 
	.byte	W15
	.byte		        Gn2 
	.byte	W06
	.byte		N03   , Dn3 
	.byte	W03
	.byte		N06   , Gn3 
	.byte	W15
	.byte		        Gn2 
	.byte	W06
	.byte		N03   , Dn3 
	.byte	W03
	.byte		N06   , Gn3 
	.byte	W15
	.byte		        Gn2 
	.byte	W06
	.byte		N03   , Dn3 
	.byte	W03
	.byte		N06   , Gn3 
	.byte	W06
	.byte	FINE

@******************************************************@
	.align	2

mus_pkmn_sv_vs_penny:
	.byte	14	@ NumTrks
	.byte	0	@ NumBlks
	.byte	mus_pkmn_sv_vs_penny_pri	@ Priority
	.byte	mus_pkmn_sv_vs_penny_rev	@ Reverb.

	.word	mus_pkmn_sv_vs_penny_grp

	.word	mus_pkmn_sv_vs_penny_1
	.word	mus_pkmn_sv_vs_penny_2
	.word	mus_pkmn_sv_vs_penny_3
	.word	mus_pkmn_sv_vs_penny_4
	.word	mus_pkmn_sv_vs_penny_5
	.word	mus_pkmn_sv_vs_penny_6
	.word	mus_pkmn_sv_vs_penny_7
	.word	mus_pkmn_sv_vs_penny_8
	.word	mus_pkmn_sv_vs_penny_9
	.word	mus_pkmn_sv_vs_penny_10
	.word	mus_pkmn_sv_vs_penny_11
@	.word	mus_pkmn_sv_vs_penny_12
	.word	mus_pkmn_sv_vs_penny_13
	.word	mus_pkmn_sv_vs_penny_14
	.word	mus_pkmn_sv_vs_penny_15

	.end
